<?xml version="1.0" encoding="utf-8" standalone="no"?>
<!DOCTYPE svg PUBLIC "-//W3C//DTD SVG 1.1//EN"
  "http://www.w3.org/Graphics/SVG/1.1/DTD/svg11.dtd">
<svg xmlns:xlink="http://www.w3.org/1999/xlink" width="857.0625pt" height="437.7255pt" viewBox="0 0 857.0625 437.7255" xmlns="http://www.w3.org/2000/svg" version="1.1">
 <metadata>
  <rdf:RDF xmlns:dc="http://purl.org/dc/elements/1.1/" xmlns:cc="http://creativecommons.org/ns#" xmlns:rdf="http://www.w3.org/1999/02/22-rdf-syntax-ns#">
   <cc:Work>
    <dc:type rdf:resource="http://purl.org/dc/dcmitype/StillImage"/>
    <dc:date>2026-07-22T04:55:01.469577</dc:date>
    <dc:format>image/svg+xml</dc:format>
    <dc:creator>
     <cc:Agent>
      <dc:title>Matplotlib v3.11.1, https://matplotlib.org/</dc:title>
     </cc:Agent>
    </dc:creator>
   </cc:Work>
  </rdf:RDF>
 </metadata>
 <defs>
  <style type="text/css">*{stroke-linejoin: round; stroke-linecap: butt}</style>
 </defs>
 <g id="figure_1">
  <g id="patch_1">
   <path d="M 0 437.7255 
L 857.0625 437.7255 
L 857.0625 0 
L 0 0 
z
" style="fill: #ffffff"/>
  </g>
  <g id="axes_1">
   <g id="patch_2">
    <path d="M 22.89375 117.17862 
L 131.00625 117.17862 
Q 133.9125 117.17862 133.9125 114.68382 
L 133.9125 87.73998 
Q 133.9125 85.24518 131.00625 85.24518 
L 22.89375 85.24518 
Q 19.9875 85.24518 19.9875 87.73998 
L 19.9875 114.68382 
Q 19.9875 117.17862 22.89375 117.17862 
z
" clip-path="url(#p1c2003dece)" style="fill: #ffffff; stroke: #333333; stroke-width: 1.2; stroke-linejoin: miter"/>
   </g>
   <g id="patch_3">
    <path d="M 165.3 92.23062 
L 290.85 92.23062 
Q 293.75625 92.23062 293.75625 89.73582 
L 293.75625 62.79198 
Q 293.75625 60.29718 290.85 60.29718 
L 165.3 60.29718 
Q 162.39375 60.29718 162.39375 62.79198 
L 162.39375 89.73582 
Q 162.39375 92.23062 165.3 92.23062 
z
" clip-path="url(#p1c2003dece)" style="fill: #ffffff; stroke: #d55e00; stroke-width: 1.2; stroke-linejoin: miter"/>
   </g>
   <g id="patch_4">
    <path d="M 330.95625 92.23062 
L 473.94375 92.23062 
Q 476.85 92.23062 476.85 89.73582 
L 476.85 62.79198 
Q 476.85 60.29718 473.94375 60.29718 
L 330.95625 60.29718 
Q 328.05 60.29718 328.05 62.79198 
L 328.05 89.73582 
Q 328.05 92.23062 330.95625 92.23062 
z
" clip-path="url(#p1c2003dece)" style="fill: #ffffff; stroke: #6a3d9a; stroke-width: 1.2; stroke-linejoin: miter"/>
   </g>
   <g id="patch_5">
    <path d="M 525.675 92.23062 
L 651.225 92.23062 
Q 654.13125 92.23062 654.13125 89.73582 
L 654.13125 62.79198 
Q 654.13125 60.29718 651.225 60.29718 
L 525.675 60.29718 
Q 522.76875 60.29718 522.76875 62.79198 
L 522.76875 89.73582 
Q 522.76875 92.23062 525.675 92.23062 
z
" clip-path="url(#p1c2003dece)" style="fill: #ffffff; stroke: #6a3d9a; stroke-width: 1.2; stroke-linejoin: miter"/>
   </g>
   <g id="patch_6">
    <path d="M 142.05 157.09542 
L 232.725 157.09542 
Q 235.63125 157.09542 235.63125 154.60062 
L 235.63125 127.65678 
Q 235.63125 125.16198 232.725 125.16198 
L 142.05 125.16198 
Q 139.14375 125.16198 139.14375 127.65678 
L 139.14375 154.60062 
Q 139.14375 157.09542 142.05 157.09542 
z
" clip-path="url(#p1c2003dece)" style="fill: #ffffff; stroke: #d55e00; stroke-width: 1.2; stroke-linejoin: miter"/>
   </g>
   <g id="patch_7">
    <path d="M 229.2375 157.09542 
L 331.5375 157.09542 
Q 334.44375 157.09542 334.44375 154.60062 
L 334.44375 127.65678 
Q 334.44375 125.16198 331.5375 125.16198 
L 229.2375 125.16198 
Q 226.33125 125.16198 226.33125 127.65678 
L 226.33125 154.60062 
Q 226.33125 157.09542 229.2375 157.09542 
z
" clip-path="url(#p1c2003dece)" style="fill: #ffffff; stroke: #cc79a7; stroke-width: 1.2; stroke-linejoin: miter"/>
   </g>
   <g id="patch_8">
    <path d="M 336.76875 157.09542 
L 468.13125 157.09542 
Q 471.0375 157.09542 471.0375 154.60062 
L 471.0375 127.65678 
Q 471.0375 125.16198 468.13125 125.16198 
L 336.76875 125.16198 
Q 333.8625 125.16198 333.8625 127.65678 
L 333.8625 154.60062 
Q 333.8625 157.09542 336.76875 157.09542 
z
" clip-path="url(#p1c2003dece)" style="fill: #ffffff; stroke: #6a3d9a; stroke-width: 1.2; stroke-linejoin: miter"/>
   </g>
   <g id="patch_9">
    <path d="M 345.4875 216.97062 
L 459.4125 216.97062 
Q 462.31875 216.97062 462.31875 214.47582 
L 462.31875 187.53198 
Q 462.31875 185.03718 459.4125 185.03718 
L 345.4875 185.03718 
Q 342.58125 185.03718 342.58125 187.53198 
L 342.58125 214.47582 
Q 342.58125 216.97062 345.4875 216.97062 
z
" clip-path="url(#p1c2003dece)" style="fill: #ffffff; stroke: #6a3d9a; stroke-width: 1.2; stroke-linejoin: miter"/>
   </g>
   <g id="patch_10">
    <path d="M 493.70625 216.97062 
L 613.44375 216.97062 
Q 616.35 216.97062 616.35 214.47582 
L 616.35 187.53198 
Q 616.35 185.03718 613.44375 185.03718 
L 493.70625 185.03718 
Q 490.8 185.03718 490.8 187.53198 
L 490.8 214.47582 
Q 490.8 216.97062 493.70625 216.97062 
z
" clip-path="url(#p1c2003dece)" style="fill: #ffffff; stroke: #0072b2; stroke-width: 1.2; stroke-linejoin: miter"/>
   </g>
   <g id="patch_11">
    <path d="M 70.846875 310.27614 
L 152.803125 310.27614 
Q 155.709375 310.27614 155.709375 307.78134 
L 155.709375 283.83126 
Q 155.709375 281.33646 152.803125 281.33646 
L 70.846875 281.33646 
Q 67.940625 281.33646 67.940625 283.83126 
L 67.940625 307.78134 
Q 67.940625 310.27614 70.846875 310.27614 
z
" clip-path="url(#p1c2003dece)" style="fill: #ffffff; stroke: #6a3d9a; stroke-width: 1.2; stroke-linejoin: miter"/>
   </g>
   <g id="patch_12">
    <path d="M 581.944552 92.822693 
Q 350.136144 185.037719 119.57436 276.75683 
" clip-path="url(#p1c2003dece)" style="fill: none; stroke: #777777; stroke-width: 1.2; stroke-linecap: round"/>
    <path d="M 124.921533 277.212616 
L 119.57436 276.75683 
L 123.147292 272.752563 
z
" clip-path="url(#p1c2003dece)" style="fill: #777777; stroke: #777777; stroke-width: 1.2; stroke-linecap: round"/>
   </g>
   <g id="patch_13">
    <path d="M 163.846875 310.27614 
L 245.803125 310.27614 
Q 248.709375 310.27614 248.709375 307.78134 
L 248.709375 283.83126 
Q 248.709375 281.33646 245.803125 281.33646 
L 163.846875 281.33646 
Q 160.940625 281.33646 160.940625 283.83126 
L 160.940625 307.78134 
Q 160.940625 310.27614 163.846875 310.27614 
z
" clip-path="url(#p1c2003dece)" style="fill: #ffffff; stroke: #6a3d9a; stroke-width: 1.2; stroke-linejoin: miter"/>
   </g>
   <g id="patch_14">
    <path d="M 582.171957 93.337672 
Q 396.635072 185.03838 212.300942 276.144632 
" clip-path="url(#p1c2003dece)" style="fill: none; stroke: #777777; stroke-width: 1.2; stroke-linecap: round"/>
    <path d="M 217.667448 276.169396 
L 212.300942 276.144632 
L 215.540656 271.866285 
z
" clip-path="url(#p1c2003dece)" style="fill: #777777; stroke: #777777; stroke-width: 1.2; stroke-linecap: round"/>
   </g>
   <g id="patch_15">
    <path d="M 256.846875 310.27614 
L 338.803125 310.27614 
Q 341.709375 310.27614 341.709375 307.78134 
L 341.709375 283.83126 
Q 341.709375 281.33646 338.803125 281.33646 
L 256.846875 281.33646 
Q 253.940625 281.33646 253.940625 283.83126 
L 253.940625 307.78134 
Q 253.940625 310.27614 256.846875 310.27614 
z
" clip-path="url(#p1c2003dece)" style="fill: #ffffff; stroke: #6a3d9a; stroke-width: 1.2; stroke-linejoin: miter"/>
   </g>
   <g id="patch_16">
    <path d="M 582.585261 94.060957 
Q 443.136984 185.037516 304.812362 275.280999 
" clip-path="url(#p1c2003dece)" style="fill: none; stroke: #777777; stroke-width: 1.2; stroke-linecap: round"/>
    <path d="M 310.143837 274.66832 
L 304.812362 275.280999 
L 307.521104 270.648212 
z
" clip-path="url(#p1c2003dece)" style="fill: #777777; stroke: #777777; stroke-width: 1.2; stroke-linecap: round"/>
   </g>
   <g id="patch_17">
    <path d="M 349.846875 310.27614 
L 431.803125 310.27614 
Q 434.709375 310.27614 434.709375 307.78134 
L 434.709375 283.83126 
Q 434.709375 281.33646 431.803125 281.33646 
L 349.846875 281.33646 
Q 346.940625 281.33646 346.940625 283.83126 
L 346.940625 307.78134 
Q 346.940625 310.27614 349.846875 310.27614 
z
" clip-path="url(#p1c2003dece)" style="fill: #ffffff; stroke: #6a3d9a; stroke-width: 1.2; stroke-linejoin: miter"/>
   </g>
   <g id="patch_18">
    <path d="M 583.399007 95.080789 
Q 489.637598 185.037086 396.844313 274.064548 
" clip-path="url(#p1c2003dece)" style="fill: none; stroke: #777777; stroke-width: 1.2; stroke-linecap: round"/>
    <path d="M 401.969532 272.47328 
L 396.844313 274.064548 
L 398.64643 269.009612 
z
" clip-path="url(#p1c2003dece)" style="fill: #777777; stroke: #777777; stroke-width: 1.2; stroke-linecap: round"/>
   </g>
   <g id="patch_19">
    <path d="M 442.846875 310.27614 
L 524.803125 310.27614 
Q 527.709375 310.27614 527.709375 307.78134 
L 527.709375 283.83126 
Q 527.709375 281.33646 524.803125 281.33646 
L 442.846875 281.33646 
Q 439.940625 281.33646 439.940625 283.83126 
L 439.940625 307.78134 
Q 439.940625 310.27614 442.846875 310.27614 
z
" clip-path="url(#p1c2003dece)" style="fill: #ffffff; stroke: #6a3d9a; stroke-width: 1.2; stroke-linejoin: miter"/>
   </g>
   <g id="patch_20">
    <path d="M 585.067121 96.365343 
Q 536.136879 185.038305 487.854827 272.536597 
" clip-path="url(#p1c2003dece)" style="fill: none; stroke: #777777; stroke-width: 1.2; stroke-linecap: round"/>
    <path d="M 492.275175 269.493486 
L 487.854827 272.536597 
L 488.072547 267.174452 
z
" clip-path="url(#p1c2003dece)" style="fill: #777777; stroke: #777777; stroke-width: 1.2; stroke-linecap: round"/>
   </g>
   <g id="patch_21">
    <path d="M 535.846875 310.27614 
L 617.803125 310.27614 
Q 620.709375 310.27614 620.709375 307.78134 
L 620.709375 283.83126 
Q 620.709375 281.33646 617.803125 281.33646 
L 535.846875 281.33646 
Q 532.940625 281.33646 532.940625 283.83126 
L 532.940625 307.78134 
Q 532.940625 310.27614 535.846875 310.27614 
z
" clip-path="url(#p1c2003dece)" style="fill: #ffffff; stroke: #6a3d9a; stroke-width: 1.2; stroke-linejoin: miter"/>
   </g>
   <g id="patch_22">
    <path d="M 588.021619 97.221712 
Q 582.637466 185.037734 577.335417 271.514629 
" clip-path="url(#p1c2003dece)" style="fill: none; stroke: #777777; stroke-width: 1.2; stroke-linecap: round"/>
    <path d="M 580.024664 266.870498 
L 577.335417 271.514629 
L 575.23366 266.576754 
z
" clip-path="url(#p1c2003dece)" style="fill: #777777; stroke: #777777; stroke-width: 1.2; stroke-linecap: round"/>
   </g>
   <g id="patch_23">
    <path d="M 605.596875 310.27614 
L 687.553125 310.27614 
Q 690.459375 310.27614 690.459375 307.78134 
L 690.459375 283.83126 
Q 690.459375 281.33646 687.553125 281.33646 
L 605.596875 281.33646 
Q 602.690625 281.33646 602.690625 283.83126 
L 602.690625 307.78134 
Q 602.690625 310.27614 605.596875 310.27614 
z
" clip-path="url(#p1c2003dece)" style="fill: #ffffff; stroke: #6a3d9a; stroke-width: 1.2; stroke-linejoin: miter"/>
   </g>
   <g id="patch_24">
    <path d="M 590.501439 96.926612 
Q 617.512766 185.038046 644.130863 271.86676 
" clip-path="url(#p1c2003dece)" style="fill: none; stroke: #777777; stroke-width: 1.2; stroke-linecap: round"/>
    <path d="M 645.018603 266.574131 
L 644.130863 271.86676 
L 640.429404 267.98099 
z
" clip-path="url(#p1c2003dece)" style="fill: #777777; stroke: #777777; stroke-width: 1.2; stroke-linecap: round"/>
   </g>
   <g id="patch_25">
    <path d="M 135.989944 99.286896 
Q 155.417291 93.727918 173.554764 88.538026 
" clip-path="url(#p1c2003dece)" style="fill: none; stroke: #666666; stroke-width: 1.2; stroke-linecap: round"/>
    <path d="M 168.279728 87.551115 
L 173.554764 88.538026 
L 169.600214 92.165908 
z
" clip-path="url(#p1c2003dece)" style="fill: #666666; stroke: #666666; stroke-width: 1.2; stroke-linecap: round"/>
   </g>
   <g id="patch_26">
    <path d="M 136.246174 100.750749 
Q 242.606547 93.72748 347.628196 86.792612 
" clip-path="url(#p1c2003dece)" style="fill: none; stroke: #666666; stroke-width: 1.2; stroke-linecap: round"/>
    <path d="M 342.680492 84.714095 
L 347.628196 86.792612 
L 342.996761 89.503665 
z
" clip-path="url(#p1c2003dece)" style="fill: #666666; stroke: #666666; stroke-width: 1.2; stroke-linecap: round"/>
   </g>
   <g id="patch_27">
    <path d="M 222.763076 95.792593 
Q 207.729968 108.697401 193.714863 120.728328 
" clip-path="url(#p1c2003dece)" style="fill: none; stroke: #d55e00; stroke-width: 1.2; stroke-linecap: round"/>
    <path d="M 198.920231 119.422898 
L 193.714863 120.728328 
L 195.793739 115.780776 
z
" clip-path="url(#p1c2003dece)" style="fill: #d55e00; stroke: #d55e00; stroke-width: 1.2; stroke-linecap: round"/>
   </g>
   <g id="patch_28">
    <path d="M 233.89566 95.118948 
Q 254.231583 108.696523 273.451709 121.529118 
" clip-path="url(#p1c2003dece)" style="fill: none; stroke: #cc79a7; stroke-width: 1.2; stroke-linecap: round"/>
    <path d="M 270.792366 116.867799 
L 273.451709 121.529118 
L 268.127048 120.859801 
z
" clip-path="url(#p1c2003dece)" style="fill: #cc79a7; stroke: #cc79a7; stroke-width: 1.2; stroke-linecap: round"/>
   </g>
   <g id="patch_29">
    <path d="M 402.45 97.238249 
Q 402.45 108.198608 402.45 117.817327 
" clip-path="url(#p1c2003dece)" style="fill: none; stroke: #6a3d9a; stroke-width: 1.2; stroke-linecap: round"/>
    <path d="M 404.85 113.017327 
L 402.45 117.817327 
L 400.05 113.017327 
z
" clip-path="url(#p1c2003dece)" style="fill: #6a3d9a; stroke: #6a3d9a; stroke-width: 1.2; stroke-linecap: round"/>
   </g>
   <g id="patch_30">
    <path d="M 402.45 163.095731 
Q 402.45 170.567126 402.45 176.696881 
" clip-path="url(#p1c2003dece)" style="fill: none; stroke: #6a3d9a; stroke-width: 1.2; stroke-linecap: round"/>
    <path d="M 404.85 171.896881 
L 402.45 176.696881 
L 400.05 171.896881 
z
" clip-path="url(#p1c2003dece)" style="fill: #6a3d9a; stroke: #6a3d9a; stroke-width: 1.2; stroke-linecap: round"/>
   </g>
   <g id="patch_31">
    <path d="M 409.326446 157.414305 
Q 478.014871 170.567794 545.385598 183.468951 
" clip-path="url(#p1c2003dece)" style="fill: none; stroke: #0072b2; stroke-width: 1.2; stroke-linecap: round"/>
    <path d="M 541.122644 180.209008 
L 545.385598 183.468951 
L 540.219872 184.923348 
z
" clip-path="url(#p1c2003dece)" style="fill: #0072b2; stroke: #0072b2; stroke-width: 1.2; stroke-linecap: round"/>
   </g>
   <g id="text_1">
    <!-- Input features -->
    <g style="fill: #111111" transform="translate(41.757812 97.80897) scale(0.1 -0.1)">
     <defs>
      <path id="DejaVuSans-2c" d="M 628 4666 
L 1259 4666 
L 1259 0 
L 628 0 
L 628 4666 
z
" transform="scale(0.015625)"/>
      <path id="DejaVuSans-51" d="M 3513 2113 
L 3513 0 
L 2938 0 
L 2938 2094 
Q 2938 2591 2744 2837 
Q 2550 3084 2163 3084 
Q 1697 3084 1428 2787 
Q 1159 2491 1159 1978 
L 1159 0 
L 581 0 
L 581 3500 
L 1159 3500 
L 1159 2956 
Q 1366 3272 1645 3428 
Q 1925 3584 2291 3584 
Q 2894 3584 3203 3211 
Q 3513 2838 3513 2113 
z
" transform="scale(0.015625)"/>
      <path id="DejaVuSans-53" d="M 1159 525 
L 1159 -1331 
L 581 -1331 
L 581 3500 
L 1159 3500 
L 1159 2969 
Q 1341 3281 1617 3432 
Q 1894 3584 2278 3584 
Q 2916 3584 3314 3078 
Q 3713 2572 3713 1747 
Q 3713 922 3314 415 
Q 2916 -91 2278 -91 
Q 1894 -91 1617 61 
Q 1341 213 1159 525 
z
M 3116 1747 
Q 3116 2381 2855 2742 
Q 2594 3103 2138 3103 
Q 1681 3103 1420 2742 
Q 1159 2381 1159 1747 
Q 1159 1113 1420 752 
Q 1681 391 2138 391 
Q 2594 391 2855 752 
Q 3116 1113 3116 1747 
z
" transform="scale(0.015625)"/>
      <path id="DejaVuSans-58" d="M 544 1381 
L 544 3500 
L 1119 3500 
L 1119 1403 
Q 1119 906 1312 657 
Q 1506 409 1894 409 
Q 2359 409 2629 706 
Q 2900 1003 2900 1516 
L 2900 3500 
L 3475 3500 
L 3475 0 
L 2900 0 
L 2900 538 
Q 2691 219 2414 64 
Q 2138 -91 1772 -91 
Q 1169 -91 856 284 
Q 544 659 544 1381 
z
M 1991 3584 
L 1991 3584 
z
" transform="scale(0.015625)"/>
      <path id="DejaVuSans-57" d="M 1172 4494 
L 1172 3500 
L 2356 3500 
L 2356 3053 
L 1172 3053 
L 1172 1153 
Q 1172 725 1289 603 
Q 1406 481 1766 481 
L 2356 481 
L 2356 0 
L 1766 0 
Q 1100 0 847 248 
Q 594 497 594 1153 
L 594 3053 
L 172 3053 
L 172 3500 
L 594 3500 
L 594 4494 
L 1172 4494 
z
" transform="scale(0.015625)"/>
      <path id="DejaVuSans-3" transform="scale(0.015625)"/>
      <path id="DejaVuSans-49" d="M 2375 4863 
L 2375 4384 
L 1825 4384 
Q 1516 4384 1395 4259 
Q 1275 4134 1275 3809 
L 1275 3500 
L 2222 3500 
L 2222 3053 
L 1275 3053 
L 1275 0 
L 697 0 
L 697 3053 
L 147 3053 
L 147 3500 
L 697 3500 
L 697 3744 
Q 697 4328 969 4595 
Q 1241 4863 1831 4863 
L 2375 4863 
z
" transform="scale(0.015625)"/>
      <path id="DejaVuSans-48" d="M 3597 1894 
L 3597 1613 
L 953 1613 
Q 991 1019 1311 708 
Q 1631 397 2203 397 
Q 2534 397 2845 478 
Q 3156 559 3463 722 
L 3463 178 
Q 3153 47 2828 -22 
Q 2503 -91 2169 -91 
Q 1331 -91 842 396 
Q 353 884 353 1716 
Q 353 2575 817 3079 
Q 1281 3584 2069 3584 
Q 2775 3584 3186 3129 
Q 3597 2675 3597 1894 
z
M 3022 2063 
Q 3016 2534 2758 2815 
Q 2500 3097 2075 3097 
Q 1594 3097 1305 2825 
Q 1016 2553 972 2059 
L 3022 2063 
z
" transform="scale(0.015625)"/>
      <path id="DejaVuSans-44" d="M 2194 1759 
Q 1497 1759 1228 1600 
Q 959 1441 959 1056 
Q 959 750 1161 570 
Q 1363 391 1709 391 
Q 2188 391 2477 730 
Q 2766 1069 2766 1631 
L 2766 1759 
L 2194 1759 
z
M 3341 1997 
L 3341 0 
L 2766 0 
L 2766 531 
Q 2569 213 2275 61 
Q 1981 -91 1556 -91 
Q 1019 -91 701 211 
Q 384 513 384 1019 
Q 384 1609 779 1909 
Q 1175 2209 1959 2209 
L 2766 2209 
L 2766 2266 
Q 2766 2663 2505 2880 
Q 2244 3097 1772 3097 
Q 1472 3097 1187 3025 
Q 903 2953 641 2809 
L 641 3341 
Q 956 3463 1253 3523 
Q 1550 3584 1831 3584 
Q 2591 3584 2966 3190 
Q 3341 2797 3341 1997 
z
" transform="scale(0.015625)"/>
      <path id="DejaVuSans-55" d="M 2631 2963 
Q 2534 3019 2420 3045 
Q 2306 3072 2169 3072 
Q 1681 3072 1420 2755 
Q 1159 2438 1159 1844 
L 1159 0 
L 581 0 
L 581 3500 
L 1159 3500 
L 1159 2956 
Q 1341 3275 1631 3429 
Q 1922 3584 2338 3584 
Q 2397 3584 2469 3576 
Q 2541 3569 2628 3553 
L 2631 2963 
z
" transform="scale(0.015625)"/>
      <path id="DejaVuSans-56" d="M 2834 3397 
L 2834 2853 
Q 2591 2978 2328 3040 
Q 2066 3103 1784 3103 
Q 1356 3103 1142 2972 
Q 928 2841 928 2578 
Q 928 2378 1081 2264 
Q 1234 2150 1697 2047 
L 1894 2003 
Q 2506 1872 2764 1633 
Q 3022 1394 3022 966 
Q 3022 478 2636 193 
Q 2250 -91 1575 -91 
Q 1294 -91 989 -36 
Q 684 19 347 128 
L 347 722 
Q 666 556 975 473 
Q 1284 391 1588 391 
Q 1994 391 2212 530 
Q 2431 669 2431 922 
Q 2431 1156 2273 1281 
Q 2116 1406 1581 1522 
L 1381 1569 
Q 847 1681 609 1914 
Q 372 2147 372 2553 
Q 372 3047 722 3315 
Q 1072 3584 1716 3584 
Q 2034 3584 2315 3537 
Q 2597 3491 2834 3397 
z
" transform="scale(0.015625)"/>
     </defs>
     <use xlink:href="#DejaVuSans-2c"/>
     <use xlink:href="#DejaVuSans-51" transform="translate(29.5 0)"/>
     <use xlink:href="#DejaVuSans-53" transform="translate(92.875 0)"/>
     <use xlink:href="#DejaVuSans-58" transform="translate(156.359375 0)"/>
     <use xlink:href="#DejaVuSans-57" transform="translate(219.734375 0)"/>
     <use xlink:href="#DejaVuSans-3" transform="translate(258.9375 0)"/>
     <use xlink:href="#DejaVuSans-49" transform="translate(290.71875 0)"/>
     <use xlink:href="#DejaVuSans-48" transform="translate(325.921875 0)"/>
     <use xlink:href="#DejaVuSans-44" transform="translate(387.453125 0)"/>
     <use xlink:href="#DejaVuSans-57" transform="translate(448.734375 0)"/>
     <use xlink:href="#DejaVuSans-58" transform="translate(487.9375 0)"/>
     <use xlink:href="#DejaVuSans-55" transform="translate(551.3125 0)"/>
     <use xlink:href="#DejaVuSans-48" transform="translate(590.21875 0)"/>
     <use xlink:href="#DejaVuSans-56" transform="translate(651.75 0)"/>
    </g>
    <!-- 48D or 54D -->
    <g style="fill: #111111" transform="translate(48.232031 109.810923) scale(0.1 -0.1)">
     <defs>
      <path id="DejaVuSans-17" d="M 2419 4116 
L 825 1625 
L 2419 1625 
L 2419 4116 
z
M 2253 4666 
L 3047 4666 
L 3047 1625 
L 3713 1625 
L 3713 1100 
L 3047 1100 
L 3047 0 
L 2419 0 
L 2419 1100 
L 313 1100 
L 313 1709 
L 2253 4666 
z
" transform="scale(0.015625)"/>
      <path id="DejaVuSans-1b" d="M 2034 2216 
Q 1584 2216 1326 1975 
Q 1069 1734 1069 1313 
Q 1069 891 1326 650 
Q 1584 409 2034 409 
Q 2484 409 2743 651 
Q 3003 894 3003 1313 
Q 3003 1734 2745 1975 
Q 2488 2216 2034 2216 
z
M 1403 2484 
Q 997 2584 770 2862 
Q 544 3141 544 3541 
Q 544 4100 942 4425 
Q 1341 4750 2034 4750 
Q 2731 4750 3128 4425 
Q 3525 4100 3525 3541 
Q 3525 3141 3298 2862 
Q 3072 2584 2669 2484 
Q 3125 2378 3379 2068 
Q 3634 1759 3634 1313 
Q 3634 634 3220 271 
Q 2806 -91 2034 -91 
Q 1263 -91 848 271 
Q 434 634 434 1313 
Q 434 1759 690 2068 
Q 947 2378 1403 2484 
z
M 1172 3481 
Q 1172 3119 1398 2916 
Q 1625 2713 2034 2713 
Q 2441 2713 2670 2916 
Q 2900 3119 2900 3481 
Q 2900 3844 2670 4047 
Q 2441 4250 2034 4250 
Q 1625 4250 1398 4047 
Q 1172 3844 1172 3481 
z
" transform="scale(0.015625)"/>
      <path id="DejaVuSans-27" d="M 1259 4147 
L 1259 519 
L 2022 519 
Q 2988 519 3436 956 
Q 3884 1394 3884 2338 
Q 3884 3275 3436 3711 
Q 2988 4147 2022 4147 
L 1259 4147 
z
M 628 4666 
L 1925 4666 
Q 3281 4666 3915 4102 
Q 4550 3538 4550 2338 
Q 4550 1131 3912 565 
Q 3275 0 1925 0 
L 628 0 
L 628 4666 
z
" transform="scale(0.015625)"/>
      <path id="DejaVuSans-52" d="M 1959 3097 
Q 1497 3097 1228 2736 
Q 959 2375 959 1747 
Q 959 1119 1226 758 
Q 1494 397 1959 397 
Q 2419 397 2687 759 
Q 2956 1122 2956 1747 
Q 2956 2369 2687 2733 
Q 2419 3097 1959 3097 
z
M 1959 3584 
Q 2709 3584 3137 3096 
Q 3566 2609 3566 1747 
Q 3566 888 3137 398 
Q 2709 -91 1959 -91 
Q 1206 -91 779 398 
Q 353 888 353 1747 
Q 353 2609 779 3096 
Q 1206 3584 1959 3584 
z
" transform="scale(0.015625)"/>
      <path id="DejaVuSans-18" d="M 691 4666 
L 3169 4666 
L 3169 4134 
L 1269 4134 
L 1269 2991 
Q 1406 3038 1543 3061 
Q 1681 3084 1819 3084 
Q 2600 3084 3056 2656 
Q 3513 2228 3513 1497 
Q 3513 744 3044 326 
Q 2575 -91 1722 -91 
Q 1428 -91 1123 -41 
Q 819 9 494 109 
L 494 744 
Q 775 591 1075 516 
Q 1375 441 1709 441 
Q 2250 441 2565 725 
Q 2881 1009 2881 1497 
Q 2881 1984 2565 2268 
Q 2250 2553 1709 2553 
Q 1456 2553 1204 2497 
Q 953 2441 691 2322 
L 691 4666 
z
" transform="scale(0.015625)"/>
     </defs>
     <use xlink:href="#DejaVuSans-17"/>
     <use xlink:href="#DejaVuSans-1b" transform="translate(63.625 0)"/>
     <use xlink:href="#DejaVuSans-27" transform="translate(127.25 0)"/>
     <use xlink:href="#DejaVuSans-3" transform="translate(204.25 0)"/>
     <use xlink:href="#DejaVuSans-52" transform="translate(236.03125 0)"/>
     <use xlink:href="#DejaVuSans-55" transform="translate(297.21875 0)"/>
     <use xlink:href="#DejaVuSans-3" transform="translate(338.328125 0)"/>
     <use xlink:href="#DejaVuSans-18" transform="translate(370.109375 0)"/>
     <use xlink:href="#DejaVuSans-17" transform="translate(433.734375 0)"/>
     <use xlink:href="#DejaVuSans-27" transform="translate(497.359375 0)"/>
    </g>
   </g>
   <g id="text_2">
    <!-- Classical ML -->
    <g style="fill: #111111" transform="translate(197.640625 72.86058) scale(0.1 -0.1)">
     <defs>
      <path id="DejaVuSans-26" d="M 4122 4306 
L 4122 3641 
Q 3803 3938 3442 4084 
Q 3081 4231 2675 4231 
Q 1875 4231 1450 3742 
Q 1025 3253 1025 2328 
Q 1025 1406 1450 917 
Q 1875 428 2675 428 
Q 3081 428 3442 575 
Q 3803 722 4122 1019 
L 4122 359 
Q 3791 134 3420 21 
Q 3050 -91 2638 -91 
Q 1578 -91 968 557 
Q 359 1206 359 2328 
Q 359 3453 968 4101 
Q 1578 4750 2638 4750 
Q 3056 4750 3426 4639 
Q 3797 4528 4122 4306 
z
" transform="scale(0.015625)"/>
      <path id="DejaVuSans-4f" d="M 603 4863 
L 1178 4863 
L 1178 0 
L 603 0 
L 603 4863 
z
" transform="scale(0.015625)"/>
      <path id="DejaVuSans-4c" d="M 603 3500 
L 1178 3500 
L 1178 0 
L 603 0 
L 603 3500 
z
M 603 4863 
L 1178 4863 
L 1178 4134 
L 603 4134 
L 603 4863 
z
" transform="scale(0.015625)"/>
      <path id="DejaVuSans-46" d="M 3122 3366 
L 3122 2828 
Q 2878 2963 2633 3030 
Q 2388 3097 2138 3097 
Q 1578 3097 1268 2742 
Q 959 2388 959 1747 
Q 959 1106 1268 751 
Q 1578 397 2138 397 
Q 2388 397 2633 464 
Q 2878 531 3122 666 
L 3122 134 
Q 2881 22 2623 -34 
Q 2366 -91 2075 -91 
Q 1284 -91 818 406 
Q 353 903 353 1747 
Q 353 2603 823 3093 
Q 1294 3584 2113 3584 
Q 2378 3584 2631 3529 
Q 2884 3475 3122 3366 
z
" transform="scale(0.015625)"/>
      <path id="DejaVuSans-30" d="M 628 4666 
L 1569 4666 
L 2759 1491 
L 3956 4666 
L 4897 4666 
L 4897 0 
L 4281 0 
L 4281 4097 
L 3078 897 
L 2444 897 
L 1241 4097 
L 1241 0 
L 628 0 
L 628 4666 
z
" transform="scale(0.015625)"/>
      <path id="DejaVuSans-2f" d="M 628 4666 
L 1259 4666 
L 1259 531 
L 3531 531 
L 3531 0 
L 628 0 
L 628 4666 
z
" transform="scale(0.015625)"/>
     </defs>
     <use xlink:href="#DejaVuSans-26"/>
     <use xlink:href="#DejaVuSans-4f" transform="translate(69.828125 0)"/>
     <use xlink:href="#DejaVuSans-44" transform="translate(97.609375 0)"/>
     <use xlink:href="#DejaVuSans-56" transform="translate(158.890625 0)"/>
     <use xlink:href="#DejaVuSans-56" transform="translate(210.984375 0)"/>
     <use xlink:href="#DejaVuSans-4c" transform="translate(263.078125 0)"/>
     <use xlink:href="#DejaVuSans-46" transform="translate(290.859375 0)"/>
     <use xlink:href="#DejaVuSans-44" transform="translate(345.84375 0)"/>
     <use xlink:href="#DejaVuSans-4f" transform="translate(407.125 0)"/>
     <use xlink:href="#DejaVuSans-3" transform="translate(434.90625 0)"/>
     <use xlink:href="#DejaVuSans-30" transform="translate(466.6875 0)"/>
     <use xlink:href="#DejaVuSans-2f" transform="translate(552.96875 0)"/>
    </g>
    <!-- raw feature classifier -->
    <g style="fill: #111111" transform="translate(175.554688 84.863314) scale(0.1 -0.1)">
     <defs>
      <path id="DejaVuSans-5a" d="M 269 3500 
L 844 3500 
L 1563 769 
L 2278 3500 
L 2956 3500 
L 3675 769 
L 4391 3500 
L 4966 3500 
L 4050 0 
L 3372 0 
L 2619 2869 
L 1863 0 
L 1184 0 
L 269 3500 
z
" transform="scale(0.015625)"/>
      <path id="DejaVuSans-13af" d="M 3431 3500 
L 3431 0 
L 2853 0 
L 2853 3053 
L 1275 3053 
L 1275 0 
L 697 0 
L 697 3053 
L 147 3053 
L 147 3500 
L 697 3500 
L 697 3744 
Q 697 4316 967 4589 
Q 1238 4863 1797 4863 
L 2375 4863 
L 2375 4384 
L 1825 4384 
Q 1516 4384 1395 4259 
Q 1275 4134 1275 3809 
L 1275 3500 
L 3431 3500 
z
M 2853 4856 
L 3431 4856 
L 3431 4128 
L 2853 4128 
L 2853 4856 
z
" transform="scale(0.015625)"/>
     </defs>
     <use xlink:href="#DejaVuSans-55"/>
     <use xlink:href="#DejaVuSans-44" transform="translate(41.109375 0)"/>
     <use xlink:href="#DejaVuSans-5a" transform="translate(102.390625 0)"/>
     <use xlink:href="#DejaVuSans-3" transform="translate(184.171875 0)"/>
     <use xlink:href="#DejaVuSans-49" transform="translate(215.953125 0)"/>
     <use xlink:href="#DejaVuSans-48" transform="translate(251.15625 0)"/>
     <use xlink:href="#DejaVuSans-44" transform="translate(312.6875 0)"/>
     <use xlink:href="#DejaVuSans-57" transform="translate(373.96875 0)"/>
     <use xlink:href="#DejaVuSans-58" transform="translate(413.171875 0)"/>
     <use xlink:href="#DejaVuSans-55" transform="translate(476.546875 0)"/>
     <use xlink:href="#DejaVuSans-48" transform="translate(515.453125 0)"/>
     <use xlink:href="#DejaVuSans-3" transform="translate(576.984375 0)"/>
     <use xlink:href="#DejaVuSans-46" transform="translate(608.765625 0)"/>
     <use xlink:href="#DejaVuSans-4f" transform="translate(663.75 0)"/>
     <use xlink:href="#DejaVuSans-44" transform="translate(691.53125 0)"/>
     <use xlink:href="#DejaVuSans-56" transform="translate(752.8125 0)"/>
     <use xlink:href="#DejaVuSans-56" transform="translate(804.90625 0)"/>
     <use xlink:href="#DejaVuSans-4c" transform="translate(857 0)"/>
     <use xlink:href="#DejaVuSans-13af" transform="translate(884.78125 0)"/>
     <use xlink:href="#DejaVuSans-48" transform="translate(947.765625 0)"/>
     <use xlink:href="#DejaVuSans-55" transform="translate(1009.296875 0)"/>
    </g>
   </g>
   <g id="text_3">
    <!-- Open-source-style -->
    <g style="fill: #111111" transform="translate(356.892969 72.86058) scale(0.1 -0.1)">
     <defs>
      <path id="DejaVuSans-32" d="M 2522 4238 
Q 1834 4238 1429 3725 
Q 1025 3213 1025 2328 
Q 1025 1447 1429 934 
Q 1834 422 2522 422 
Q 3209 422 3611 934 
Q 4013 1447 4013 2328 
Q 4013 3213 3611 3725 
Q 3209 4238 2522 4238 
z
M 2522 4750 
Q 3503 4750 4090 4092 
Q 4678 3434 4678 2328 
Q 4678 1225 4090 567 
Q 3503 -91 2522 -91 
Q 1538 -91 948 565 
Q 359 1222 359 2328 
Q 359 3434 948 4092 
Q 1538 4750 2522 4750 
z
" transform="scale(0.015625)"/>
      <path id="DejaVuSans-10" d="M 313 2009 
L 1997 2009 
L 1997 1497 
L 313 1497 
L 313 2009 
z
" transform="scale(0.015625)"/>
      <path id="DejaVuSans-5c" d="M 2059 -325 
Q 1816 -950 1584 -1140 
Q 1353 -1331 966 -1331 
L 506 -1331 
L 506 -850 
L 844 -850 
Q 1081 -850 1212 -737 
Q 1344 -625 1503 -206 
L 1606 56 
L 191 3500 
L 800 3500 
L 1894 763 
L 2988 3500 
L 3597 3500 
L 2059 -325 
z
" transform="scale(0.015625)"/>
     </defs>
     <use xlink:href="#DejaVuSans-32"/>
     <use xlink:href="#DejaVuSans-53" transform="translate(78.71875 0)"/>
     <use xlink:href="#DejaVuSans-48" transform="translate(142.203125 0)"/>
     <use xlink:href="#DejaVuSans-51" transform="translate(203.734375 0)"/>
     <use xlink:href="#DejaVuSans-10" transform="translate(267.109375 0)"/>
     <use xlink:href="#DejaVuSans-56" transform="translate(303.1875 0)"/>
     <use xlink:href="#DejaVuSans-52" transform="translate(355.28125 0)"/>
     <use xlink:href="#DejaVuSans-58" transform="translate(416.46875 0)"/>
     <use xlink:href="#DejaVuSans-55" transform="translate(479.84375 0)"/>
     <use xlink:href="#DejaVuSans-46" transform="translate(518.75 0)"/>
     <use xlink:href="#DejaVuSans-48" transform="translate(573.734375 0)"/>
     <use xlink:href="#DejaVuSans-10" transform="translate(635.265625 0)"/>
     <use xlink:href="#DejaVuSans-56" transform="translate(671.34375 0)"/>
     <use xlink:href="#DejaVuSans-57" transform="translate(723.4375 0)"/>
     <use xlink:href="#DejaVuSans-5c" transform="translate(762.640625 0)"/>
     <use xlink:href="#DejaVuSans-4f" transform="translate(821.828125 0)"/>
     <use xlink:href="#DejaVuSans-48" transform="translate(849.609375 0)"/>
    </g>
    <!-- bottleneck16 MLP -->
    <g style="fill: #111111" transform="translate(357.874219 84.863314) scale(0.1 -0.1)">
     <defs>
      <path id="DejaVuSans-45" d="M 3116 1747 
Q 3116 2381 2855 2742 
Q 2594 3103 2138 3103 
Q 1681 3103 1420 2742 
Q 1159 2381 1159 1747 
Q 1159 1113 1420 752 
Q 1681 391 2138 391 
Q 2594 391 2855 752 
Q 3116 1113 3116 1747 
z
M 1159 2969 
Q 1341 3281 1617 3432 
Q 1894 3584 2278 3584 
Q 2916 3584 3314 3078 
Q 3713 2572 3713 1747 
Q 3713 922 3314 415 
Q 2916 -91 2278 -91 
Q 1894 -91 1617 61 
Q 1341 213 1159 525 
L 1159 0 
L 581 0 
L 581 4863 
L 1159 4863 
L 1159 2969 
z
" transform="scale(0.015625)"/>
      <path id="DejaVuSans-4e" d="M 581 4863 
L 1159 4863 
L 1159 1991 
L 2875 3500 
L 3609 3500 
L 1753 1863 
L 3688 0 
L 2938 0 
L 1159 1709 
L 1159 0 
L 581 0 
L 581 4863 
z
" transform="scale(0.015625)"/>
      <path id="DejaVuSans-14" d="M 794 531 
L 1825 531 
L 1825 4091 
L 703 3866 
L 703 4441 
L 1819 4666 
L 2450 4666 
L 2450 531 
L 3481 531 
L 3481 0 
L 794 0 
L 794 531 
z
" transform="scale(0.015625)"/>
      <path id="DejaVuSans-19" d="M 2113 2584 
Q 1688 2584 1439 2293 
Q 1191 2003 1191 1497 
Q 1191 994 1439 701 
Q 1688 409 2113 409 
Q 2538 409 2786 701 
Q 3034 994 3034 1497 
Q 3034 2003 2786 2293 
Q 2538 2584 2113 2584 
z
M 3366 4563 
L 3366 3988 
Q 3128 4100 2886 4159 
Q 2644 4219 2406 4219 
Q 1781 4219 1451 3797 
Q 1122 3375 1075 2522 
Q 1259 2794 1537 2939 
Q 1816 3084 2150 3084 
Q 2853 3084 3261 2657 
Q 3669 2231 3669 1497 
Q 3669 778 3244 343 
Q 2819 -91 2113 -91 
Q 1303 -91 875 529 
Q 447 1150 447 2328 
Q 447 3434 972 4092 
Q 1497 4750 2381 4750 
Q 2619 4750 2861 4703 
Q 3103 4656 3366 4563 
z
" transform="scale(0.015625)"/>
      <path id="DejaVuSans-33" d="M 1259 4147 
L 1259 2394 
L 2053 2394 
Q 2494 2394 2734 2622 
Q 2975 2850 2975 3272 
Q 2975 3691 2734 3919 
Q 2494 4147 2053 4147 
L 1259 4147 
z
M 628 4666 
L 2053 4666 
Q 2838 4666 3239 4311 
Q 3641 3956 3641 3272 
Q 3641 2581 3239 2228 
Q 2838 1875 2053 1875 
L 1259 1875 
L 1259 0 
L 628 0 
L 628 4666 
z
" transform="scale(0.015625)"/>
     </defs>
     <use xlink:href="#DejaVuSans-45"/>
     <use xlink:href="#DejaVuSans-52" transform="translate(63.484375 0)"/>
     <use xlink:href="#DejaVuSans-57" transform="translate(124.671875 0)"/>
     <use xlink:href="#DejaVuSans-57" transform="translate(163.875 0)"/>
     <use xlink:href="#DejaVuSans-4f" transform="translate(203.078125 0)"/>
     <use xlink:href="#DejaVuSans-48" transform="translate(230.859375 0)"/>
     <use xlink:href="#DejaVuSans-51" transform="translate(292.390625 0)"/>
     <use xlink:href="#DejaVuSans-48" transform="translate(355.765625 0)"/>
     <use xlink:href="#DejaVuSans-46" transform="translate(417.296875 0)"/>
     <use xlink:href="#DejaVuSans-4e" transform="translate(472.28125 0)"/>
     <use xlink:href="#DejaVuSans-14" transform="translate(530.1875 0)"/>
     <use xlink:href="#DejaVuSans-19" transform="translate(593.8125 0)"/>
     <use xlink:href="#DejaVuSans-3" transform="translate(657.4375 0)"/>
     <use xlink:href="#DejaVuSans-30" transform="translate(689.21875 0)"/>
     <use xlink:href="#DejaVuSans-2f" transform="translate(775.5 0)"/>
     <use xlink:href="#DejaVuSans-33" transform="translate(831.21875 0)"/>
    </g>
   </g>
   <g id="text_4">
    <!-- Adaptation objective -->
    <g style="fill: #111111" transform="translate(536.680469 72.86058) scale(0.1 -0.1)">
     <defs>
      <path id="DejaVuSans-24" d="M 2188 4044 
L 1331 1722 
L 3047 1722 
L 2188 4044 
z
M 1831 4666 
L 2547 4666 
L 4325 0 
L 3669 0 
L 3244 1197 
L 1141 1197 
L 716 0 
L 50 0 
L 1831 4666 
z
" transform="scale(0.015625)"/>
      <path id="DejaVuSans-47" d="M 2906 2969 
L 2906 4863 
L 3481 4863 
L 3481 0 
L 2906 0 
L 2906 525 
Q 2725 213 2448 61 
Q 2172 -91 1784 -91 
Q 1150 -91 751 415 
Q 353 922 353 1747 
Q 353 2572 751 3078 
Q 1150 3584 1784 3584 
Q 2172 3584 2448 3432 
Q 2725 3281 2906 2969 
z
M 947 1747 
Q 947 1113 1208 752 
Q 1469 391 1925 391 
Q 2381 391 2643 752 
Q 2906 1113 2906 1747 
Q 2906 2381 2643 2742 
Q 2381 3103 1925 3103 
Q 1469 3103 1208 2742 
Q 947 2381 947 1747 
z
" transform="scale(0.015625)"/>
      <path id="DejaVuSans-4d" d="M 603 3500 
L 1178 3500 
L 1178 -63 
Q 1178 -731 923 -1031 
Q 669 -1331 103 -1331 
L -116 -1331 
L -116 -844 
L 38 -844 
Q 366 -844 484 -692 
Q 603 -541 603 -63 
L 603 3500 
z
M 603 4863 
L 1178 4863 
L 1178 4134 
L 603 4134 
L 603 4863 
z
" transform="scale(0.015625)"/>
      <path id="DejaVuSans-59" d="M 191 3500 
L 800 3500 
L 1894 563 
L 2988 3500 
L 3597 3500 
L 2284 0 
L 1503 0 
L 191 3500 
z
" transform="scale(0.015625)"/>
     </defs>
     <use xlink:href="#DejaVuSans-24"/>
     <use xlink:href="#DejaVuSans-47" transform="translate(66.65625 0)"/>
     <use xlink:href="#DejaVuSans-44" transform="translate(130.140625 0)"/>
     <use xlink:href="#DejaVuSans-53" transform="translate(191.421875 0)"/>
     <use xlink:href="#DejaVuSans-57" transform="translate(254.90625 0)"/>
     <use xlink:href="#DejaVuSans-44" transform="translate(294.109375 0)"/>
     <use xlink:href="#DejaVuSans-57" transform="translate(355.390625 0)"/>
     <use xlink:href="#DejaVuSans-4c" transform="translate(394.59375 0)"/>
     <use xlink:href="#DejaVuSans-52" transform="translate(422.375 0)"/>
     <use xlink:href="#DejaVuSans-51" transform="translate(483.5625 0)"/>
     <use xlink:href="#DejaVuSans-3" transform="translate(546.9375 0)"/>
     <use xlink:href="#DejaVuSans-52" transform="translate(578.71875 0)"/>
     <use xlink:href="#DejaVuSans-45" transform="translate(639.90625 0)"/>
     <use xlink:href="#DejaVuSans-4d" transform="translate(703.390625 0)"/>
     <use xlink:href="#DejaVuSans-48" transform="translate(731.171875 0)"/>
     <use xlink:href="#DejaVuSans-46" transform="translate(792.703125 0)"/>
     <use xlink:href="#DejaVuSans-57" transform="translate(847.6875 0)"/>
     <use xlink:href="#DejaVuSans-4c" transform="translate(886.890625 0)"/>
     <use xlink:href="#DejaVuSans-59" transform="translate(914.671875 0)"/>
     <use xlink:href="#DejaVuSans-48" transform="translate(973.859375 0)"/>
    </g>
    <!-- optional -->
    <g style="fill: #111111" transform="translate(568.185938 84.863314) scale(0.1 -0.1)">
     <use xlink:href="#DejaVuSans-52"/>
     <use xlink:href="#DejaVuSans-53" transform="translate(61.1875 0)"/>
     <use xlink:href="#DejaVuSans-57" transform="translate(124.671875 0)"/>
     <use xlink:href="#DejaVuSans-4c" transform="translate(163.875 0)"/>
     <use xlink:href="#DejaVuSans-52" transform="translate(191.65625 0)"/>
     <use xlink:href="#DejaVuSans-51" transform="translate(252.84375 0)"/>
     <use xlink:href="#DejaVuSans-44" transform="translate(316.21875 0)"/>
     <use xlink:href="#DejaVuSans-4f" transform="translate(377.5 0)"/>
    </g>
   </g>
   <g id="text_5">
    <!-- LR -->
    <g style="fill: #111111" transform="translate(181.127344 137.72538) scale(0.1 -0.1)">
     <defs>
      <path id="DejaVuSans-35" d="M 2841 2188 
Q 3044 2119 3236 1894 
Q 3428 1669 3622 1275 
L 4263 0 
L 3584 0 
L 2988 1197 
Q 2756 1666 2539 1819 
Q 2322 1972 1947 1972 
L 1259 1972 
L 1259 0 
L 628 0 
L 628 4666 
L 2053 4666 
Q 2853 4666 3247 4331 
Q 3641 3997 3641 3322 
Q 3641 2881 3436 2590 
Q 3231 2300 2841 2188 
z
M 1259 4147 
L 1259 2491 
L 2053 2491 
Q 2509 2491 2742 2702 
Q 2975 2913 2975 3322 
Q 2975 3731 2742 3939 
Q 2509 4147 2053 4147 
L 1259 4147 
z
" transform="scale(0.015625)"/>
     </defs>
     <use xlink:href="#DejaVuSans-2f"/>
     <use xlink:href="#DejaVuSans-35" transform="translate(55.71875 0)"/>
    </g>
    <!-- raw -&gt; LR -->
    <g style="fill: #111111" transform="translate(162.746875 149.727333) scale(0.1 -0.1)">
     <defs>
      <path id="DejaVuSans-21" d="M 678 3150 
L 678 3719 
L 4684 2266 
L 4684 1747 
L 678 294 
L 678 863 
L 3897 2003 
L 678 3150 
z
" transform="scale(0.015625)"/>
     </defs>
     <use xlink:href="#DejaVuSans-55"/>
     <use xlink:href="#DejaVuSans-44" transform="translate(41.109375 0)"/>
     <use xlink:href="#DejaVuSans-5a" transform="translate(102.390625 0)"/>
     <use xlink:href="#DejaVuSans-3" transform="translate(184.171875 0)"/>
     <use xlink:href="#DejaVuSans-10" transform="translate(215.953125 0)"/>
     <use xlink:href="#DejaVuSans-21" transform="translate(252.03125 0)"/>
     <use xlink:href="#DejaVuSans-3" transform="translate(335.828125 0)"/>
     <use xlink:href="#DejaVuSans-2f" transform="translate(367.609375 0)"/>
     <use xlink:href="#DejaVuSans-35" transform="translate(423.328125 0)"/>
    </g>
   </g>
   <g id="text_6">
    <!-- sklearn MLP -->
    <g style="fill: #111111" transform="translate(250.517187 137.72577) scale(0.1 -0.1)">
     <use xlink:href="#DejaVuSans-56"/>
     <use xlink:href="#DejaVuSans-4e" transform="translate(52.09375 0)"/>
     <use xlink:href="#DejaVuSans-4f" transform="translate(110 0)"/>
     <use xlink:href="#DejaVuSans-48" transform="translate(137.78125 0)"/>
     <use xlink:href="#DejaVuSans-44" transform="translate(199.3125 0)"/>
     <use xlink:href="#DejaVuSans-55" transform="translate(260.59375 0)"/>
     <use xlink:href="#DejaVuSans-51" transform="translate(299.953125 0)"/>
     <use xlink:href="#DejaVuSans-3" transform="translate(363.328125 0)"/>
     <use xlink:href="#DejaVuSans-30" transform="translate(395.109375 0)"/>
     <use xlink:href="#DejaVuSans-2f" transform="translate(481.390625 0)"/>
     <use xlink:href="#DejaVuSans-33" transform="translate(537.109375 0)"/>
    </g>
    <!-- raw -&gt; MLP -->
    <g style="fill: #111111" transform="translate(251.892187 149.727723) scale(0.1 -0.1)">
     <use xlink:href="#DejaVuSans-55"/>
     <use xlink:href="#DejaVuSans-44" transform="translate(41.109375 0)"/>
     <use xlink:href="#DejaVuSans-5a" transform="translate(102.390625 0)"/>
     <use xlink:href="#DejaVuSans-3" transform="translate(184.171875 0)"/>
     <use xlink:href="#DejaVuSans-10" transform="translate(215.953125 0)"/>
     <use xlink:href="#DejaVuSans-21" transform="translate(252.03125 0)"/>
     <use xlink:href="#DejaVuSans-3" transform="translate(335.828125 0)"/>
     <use xlink:href="#DejaVuSans-30" transform="translate(367.609375 0)"/>
     <use xlink:href="#DejaVuSans-2f" transform="translate(453.890625 0)"/>
     <use xlink:href="#DejaVuSans-33" transform="translate(509.609375 0)"/>
    </g>
   </g>
   <g id="text_7">
    <!-- G_f feature extractor -->
    <g style="fill: #111111" transform="translate(350.233594 137.72538) scale(0.1 -0.1)">
     <defs>
      <path id="DejaVuSans-2a" d="M 3809 666 
L 3809 1919 
L 2778 1919 
L 2778 2438 
L 4434 2438 
L 4434 434 
Q 4069 175 3628 42 
Q 3188 -91 2688 -91 
Q 1594 -91 976 548 
Q 359 1188 359 2328 
Q 359 3472 976 4111 
Q 1594 4750 2688 4750 
Q 3144 4750 3555 4637 
Q 3966 4525 4313 4306 
L 4313 3634 
Q 3963 3931 3569 4081 
Q 3175 4231 2741 4231 
Q 1884 4231 1454 3753 
Q 1025 3275 1025 2328 
Q 1025 1384 1454 906 
Q 1884 428 2741 428 
Q 3075 428 3337 486 
Q 3600 544 3809 666 
z
" transform="scale(0.015625)"/>
      <path id="DejaVuSans-42" d="M 3263 -1063 
L 3263 -1509 
L -63 -1509 
L -63 -1063 
L 3263 -1063 
z
" transform="scale(0.015625)"/>
      <path id="DejaVuSans-5b" d="M 3513 3500 
L 2247 1797 
L 3578 0 
L 2900 0 
L 1881 1375 
L 863 0 
L 184 0 
L 1544 1831 
L 300 3500 
L 978 3500 
L 1906 2253 
L 2834 3500 
L 3513 3500 
z
" transform="scale(0.015625)"/>
     </defs>
     <use xlink:href="#DejaVuSans-2a"/>
     <use xlink:href="#DejaVuSans-42" transform="translate(77.484375 0)"/>
     <use xlink:href="#DejaVuSans-49" transform="translate(127.484375 0)"/>
     <use xlink:href="#DejaVuSans-3" transform="translate(162.6875 0)"/>
     <use xlink:href="#DejaVuSans-49" transform="translate(194.46875 0)"/>
     <use xlink:href="#DejaVuSans-48" transform="translate(229.671875 0)"/>
     <use xlink:href="#DejaVuSans-44" transform="translate(291.203125 0)"/>
     <use xlink:href="#DejaVuSans-57" transform="translate(352.484375 0)"/>
     <use xlink:href="#DejaVuSans-58" transform="translate(391.6875 0)"/>
     <use xlink:href="#DejaVuSans-55" transform="translate(455.0625 0)"/>
     <use xlink:href="#DejaVuSans-48" transform="translate(493.96875 0)"/>
     <use xlink:href="#DejaVuSans-3" transform="translate(555.5 0)"/>
     <use xlink:href="#DejaVuSans-48" transform="translate(587.28125 0)"/>
     <use xlink:href="#DejaVuSans-5b" transform="translate(647.0625 0)"/>
     <use xlink:href="#DejaVuSans-57" transform="translate(706.25 0)"/>
     <use xlink:href="#DejaVuSans-55" transform="translate(745.453125 0)"/>
     <use xlink:href="#DejaVuSans-44" transform="translate(786.5625 0)"/>
     <use xlink:href="#DejaVuSans-46" transform="translate(847.84375 0)"/>
     <use xlink:href="#DejaVuSans-57" transform="translate(902.828125 0)"/>
     <use xlink:href="#DejaVuSans-52" transform="translate(942.03125 0)"/>
     <use xlink:href="#DejaVuSans-55" transform="translate(1003.21875 0)"/>
    </g>
    <!-- x -&gt; h(16D) -->
    <g style="fill: #111111" transform="translate(373.035937 149.728114) scale(0.1 -0.1)">
     <defs>
      <path id="DejaVuSans-4b" d="M 3513 2113 
L 3513 0 
L 2938 0 
L 2938 2094 
Q 2938 2591 2744 2837 
Q 2550 3084 2163 3084 
Q 1697 3084 1428 2787 
Q 1159 2491 1159 1978 
L 1159 0 
L 581 0 
L 581 4863 
L 1159 4863 
L 1159 2956 
Q 1366 3272 1645 3428 
Q 1925 3584 2291 3584 
Q 2894 3584 3203 3211 
Q 3513 2838 3513 2113 
z
" transform="scale(0.015625)"/>
      <path id="DejaVuSans-b" d="M 1984 4856 
Q 1566 4138 1362 3434 
Q 1159 2731 1159 2009 
Q 1159 1288 1364 580 
Q 1569 -128 1984 -844 
L 1484 -844 
Q 1016 -109 783 600 
Q 550 1309 550 2009 
Q 550 2706 781 3412 
Q 1013 4119 1484 4856 
L 1984 4856 
z
" transform="scale(0.015625)"/>
      <path id="DejaVuSans-c" d="M 513 4856 
L 1013 4856 
Q 1481 4119 1714 3412 
Q 1947 2706 1947 2009 
Q 1947 1309 1714 600 
Q 1481 -109 1013 -844 
L 513 -844 
Q 928 -128 1133 580 
Q 1338 1288 1338 2009 
Q 1338 2731 1133 3434 
Q 928 4138 513 4856 
z
" transform="scale(0.015625)"/>
     </defs>
     <use xlink:href="#DejaVuSans-5b"/>
     <use xlink:href="#DejaVuSans-3" transform="translate(59.1875 0)"/>
     <use xlink:href="#DejaVuSans-10" transform="translate(90.96875 0)"/>
     <use xlink:href="#DejaVuSans-21" transform="translate(127.046875 0)"/>
     <use xlink:href="#DejaVuSans-3" transform="translate(210.84375 0)"/>
     <use xlink:href="#DejaVuSans-4b" transform="translate(242.625 0)"/>
     <use xlink:href="#DejaVuSans-b" transform="translate(306 0)"/>
     <use xlink:href="#DejaVuSans-14" transform="translate(345.015625 0)"/>
     <use xlink:href="#DejaVuSans-19" transform="translate(408.640625 0)"/>
     <use xlink:href="#DejaVuSans-27" transform="translate(472.265625 0)"/>
     <use xlink:href="#DejaVuSans-c" transform="translate(549.265625 0)"/>
    </g>
   </g>
   <g id="text_8">
    <!-- MLP head -->
    <g style="fill: #111111" transform="translate(378.2625 197.60058) scale(0.1 -0.1)">
     <use xlink:href="#DejaVuSans-30"/>
     <use xlink:href="#DejaVuSans-2f" transform="translate(86.28125 0)"/>
     <use xlink:href="#DejaVuSans-33" transform="translate(142 0)"/>
     <use xlink:href="#DejaVuSans-3" transform="translate(202.296875 0)"/>
     <use xlink:href="#DejaVuSans-4b" transform="translate(234.078125 0)"/>
     <use xlink:href="#DejaVuSans-48" transform="translate(297.453125 0)"/>
     <use xlink:href="#DejaVuSans-44" transform="translate(358.984375 0)"/>
     <use xlink:href="#DejaVuSans-47" transform="translate(420.265625 0)"/>
    </g>
    <!-- h -&gt; gas class -->
    <g style="fill: #111111" transform="translate(367.265625 209.603314) scale(0.1 -0.1)">
     <defs>
      <path id="DejaVuSans-4a" d="M 2906 1791 
Q 2906 2416 2648 2759 
Q 2391 3103 1925 3103 
Q 1463 3103 1205 2759 
Q 947 2416 947 1791 
Q 947 1169 1205 825 
Q 1463 481 1925 481 
Q 2391 481 2648 825 
Q 2906 1169 2906 1791 
z
M 3481 434 
Q 3481 -459 3084 -895 
Q 2688 -1331 1869 -1331 
Q 1566 -1331 1297 -1286 
Q 1028 -1241 775 -1147 
L 775 -588 
Q 1028 -725 1275 -790 
Q 1522 -856 1778 -856 
Q 2344 -856 2625 -561 
Q 2906 -266 2906 331 
L 2906 616 
Q 2728 306 2450 153 
Q 2172 0 1784 0 
Q 1141 0 747 490 
Q 353 981 353 1791 
Q 353 2603 747 3093 
Q 1141 3584 1784 3584 
Q 2172 3584 2450 3431 
Q 2728 3278 2906 2969 
L 2906 3500 
L 3481 3500 
L 3481 434 
z
" transform="scale(0.015625)"/>
     </defs>
     <use xlink:href="#DejaVuSans-4b"/>
     <use xlink:href="#DejaVuSans-3" transform="translate(63.375 0)"/>
     <use xlink:href="#DejaVuSans-10" transform="translate(95.15625 0)"/>
     <use xlink:href="#DejaVuSans-21" transform="translate(131.234375 0)"/>
     <use xlink:href="#DejaVuSans-3" transform="translate(215.03125 0)"/>
     <use xlink:href="#DejaVuSans-4a" transform="translate(246.8125 0)"/>
     <use xlink:href="#DejaVuSans-44" transform="translate(310.296875 0)"/>
     <use xlink:href="#DejaVuSans-56" transform="translate(371.578125 0)"/>
     <use xlink:href="#DejaVuSans-3" transform="translate(423.671875 0)"/>
     <use xlink:href="#DejaVuSans-46" transform="translate(455.453125 0)"/>
     <use xlink:href="#DejaVuSans-4f" transform="translate(510.4375 0)"/>
     <use xlink:href="#DejaVuSans-44" transform="translate(538.21875 0)"/>
     <use xlink:href="#DejaVuSans-56" transform="translate(599.5 0)"/>
     <use xlink:href="#DejaVuSans-56" transform="translate(651.59375 0)"/>
    </g>
   </g>
   <g id="text_9">
    <!-- MLPLR -->
    <g style="fill: #111111" transform="translate(537.2 197.600189) scale(0.1 -0.1)">
     <use xlink:href="#DejaVuSans-30"/>
     <use xlink:href="#DejaVuSans-2f" transform="translate(86.28125 0)"/>
     <use xlink:href="#DejaVuSans-33" transform="translate(142 0)"/>
     <use xlink:href="#DejaVuSans-2f" transform="translate(202.296875 0)"/>
     <use xlink:href="#DejaVuSans-35" transform="translate(258.015625 0)"/>
    </g>
    <!-- freeze h, then LR -->
    <g style="fill: #111111" transform="translate(510.85625 209.602923) scale(0.1 -0.1)">
     <defs>
      <path id="DejaVuSans-5d" d="M 353 3500 
L 3084 3500 
L 3084 2975 
L 922 459 
L 3084 459 
L 3084 0 
L 275 0 
L 275 525 
L 2438 3041 
L 353 3041 
L 353 3500 
z
" transform="scale(0.015625)"/>
      <path id="DejaVuSans-f" d="M 750 794 
L 1409 794 
L 1409 256 
L 897 -744 
L 494 -744 
L 750 256 
L 750 794 
z
" transform="scale(0.015625)"/>
     </defs>
     <use xlink:href="#DejaVuSans-49"/>
     <use xlink:href="#DejaVuSans-55" transform="translate(35.203125 0)"/>
     <use xlink:href="#DejaVuSans-48" transform="translate(74.109375 0)"/>
     <use xlink:href="#DejaVuSans-48" transform="translate(135.640625 0)"/>
     <use xlink:href="#DejaVuSans-5d" transform="translate(197.171875 0)"/>
     <use xlink:href="#DejaVuSans-48" transform="translate(249.65625 0)"/>
     <use xlink:href="#DejaVuSans-3" transform="translate(311.1875 0)"/>
     <use xlink:href="#DejaVuSans-4b" transform="translate(342.96875 0)"/>
     <use xlink:href="#DejaVuSans-f" transform="translate(406.34375 0)"/>
     <use xlink:href="#DejaVuSans-3" transform="translate(438.125 0)"/>
     <use xlink:href="#DejaVuSans-57" transform="translate(469.90625 0)"/>
     <use xlink:href="#DejaVuSans-4b" transform="translate(509.109375 0)"/>
     <use xlink:href="#DejaVuSans-48" transform="translate(572.484375 0)"/>
     <use xlink:href="#DejaVuSans-51" transform="translate(634.015625 0)"/>
     <use xlink:href="#DejaVuSans-3" transform="translate(697.390625 0)"/>
     <use xlink:href="#DejaVuSans-2f" transform="translate(729.171875 0)"/>
     <use xlink:href="#DejaVuSans-35" transform="translate(784.890625 0)"/>
    </g>
   </g>
   <g id="text_10">
    <!-- No-DA NN -->
    <g style="fill: #111111" transform="translate(86.875 298.403956) scale(0.1 -0.1)">
     <defs>
      <path id="DejaVuSans-31" d="M 628 4666 
L 1478 4666 
L 3547 763 
L 3547 4666 
L 4159 4666 
L 4159 0 
L 3309 0 
L 1241 3903 
L 1241 0 
L 628 0 
L 628 4666 
z
" transform="scale(0.015625)"/>
     </defs>
     <use xlink:href="#DejaVuSans-31"/>
     <use xlink:href="#DejaVuSans-52" transform="translate(74.8125 0)"/>
     <use xlink:href="#DejaVuSans-10" transform="translate(137.859375 0)"/>
     <use xlink:href="#DejaVuSans-27" transform="translate(173.9375 0)"/>
     <use xlink:href="#DejaVuSans-24" transform="translate(249.1875 0)"/>
     <use xlink:href="#DejaVuSans-3" transform="translate(317.59375 0)"/>
     <use xlink:href="#DejaVuSans-31" transform="translate(349.375 0)"/>
     <use xlink:href="#DejaVuSans-31" transform="translate(424.1875 0)"/>
    </g>
   </g>
   <g id="text_11">
    <!-- DANN -->
    <g style="fill: #111111" transform="translate(190.160937 298.403956) scale(0.1 -0.1)">
     <use xlink:href="#DejaVuSans-27"/>
     <use xlink:href="#DejaVuSans-24" transform="translate(75.25 0)"/>
     <use xlink:href="#DejaVuSans-31" transform="translate(143.65625 0)"/>
     <use xlink:href="#DejaVuSans-31" transform="translate(218.46875 0)"/>
    </g>
   </g>
   <g id="text_12">
    <!-- CDAN -->
    <g style="fill: #111111" transform="translate(283.410156 298.403956) scale(0.1 -0.1)">
     <use xlink:href="#DejaVuSans-26"/>
     <use xlink:href="#DejaVuSans-27" transform="translate(69.828125 0)"/>
     <use xlink:href="#DejaVuSans-24" transform="translate(145.078125 0)"/>
     <use xlink:href="#DejaVuSans-31" transform="translate(213.484375 0)"/>
    </g>
   </g>
   <g id="text_13">
    <!-- C-DANN -->
    <g style="fill: #111111" transform="translate(370.865625 298.403956) scale(0.1 -0.1)">
     <use xlink:href="#DejaVuSans-26"/>
     <use xlink:href="#DejaVuSans-10" transform="translate(69.828125 0)"/>
     <use xlink:href="#DejaVuSans-27" transform="translate(105.90625 0)"/>
     <use xlink:href="#DejaVuSans-24" transform="translate(181.15625 0)"/>
     <use xlink:href="#DejaVuSans-31" transform="translate(249.5625 0)"/>
     <use xlink:href="#DejaVuSans-31" transform="translate(324.375 0)"/>
    </g>
   </g>
   <g id="text_14">
    <!-- Deep CORAL -->
    <g style="fill: #111111" transform="translate(452.153125 298.403956) scale(0.1 -0.1)">
     <use xlink:href="#DejaVuSans-27"/>
     <use xlink:href="#DejaVuSans-48" transform="translate(77 0)"/>
     <use xlink:href="#DejaVuSans-48" transform="translate(138.53125 0)"/>
     <use xlink:href="#DejaVuSans-53" transform="translate(200.0625 0)"/>
     <use xlink:href="#DejaVuSans-3" transform="translate(263.546875 0)"/>
     <use xlink:href="#DejaVuSans-26" transform="translate(295.328125 0)"/>
     <use xlink:href="#DejaVuSans-32" transform="translate(365.15625 0)"/>
     <use xlink:href="#DejaVuSans-35" transform="translate(443.875 0)"/>
     <use xlink:href="#DejaVuSans-24" transform="translate(509.3125 0)"/>
     <use xlink:href="#DejaVuSans-2f" transform="translate(577.71875 0)"/>
    </g>
   </g>
   <g id="text_15">
    <!-- MK-MMD -->
    <g style="fill: #111111" transform="translate(555.475 298.403956) scale(0.1 -0.1)">
     <defs>
      <path id="DejaVuSans-2e" d="M 628 4666 
L 1259 4666 
L 1259 2694 
L 3353 4666 
L 4166 4666 
L 1850 2491 
L 4331 0 
L 3500 0 
L 1259 2247 
L 1259 0 
L 628 0 
L 628 4666 
z
" transform="scale(0.015625)"/>
     </defs>
     <use xlink:href="#DejaVuSans-30"/>
     <use xlink:href="#DejaVuSans-2e" transform="translate(86.28125 0)"/>
     <use xlink:href="#DejaVuSans-10" transform="translate(141.359375 0)"/>
     <use xlink:href="#DejaVuSans-30" transform="translate(177.4375 0)"/>
     <use xlink:href="#DejaVuSans-30" transform="translate(263.71875 0)"/>
     <use xlink:href="#DejaVuSans-27" transform="translate(350 0)"/>
    </g>
   </g>
   <g id="text_16">
    <!-- Hybrids -->
    <g style="fill: #111111" transform="translate(627.457813 298.404347) scale(0.1 -0.1)">
     <defs>
      <path id="DejaVuSans-2b" d="M 628 4666 
L 1259 4666 
L 1259 2753 
L 3553 2753 
L 3553 4666 
L 4184 4666 
L 4184 0 
L 3553 0 
L 3553 2222 
L 1259 2222 
L 1259 0 
L 628 0 
L 628 4666 
z
" transform="scale(0.015625)"/>
     </defs>
     <use xlink:href="#DejaVuSans-2b"/>
     <use xlink:href="#DejaVuSans-5c" transform="translate(75.203125 0)"/>
     <use xlink:href="#DejaVuSans-45" transform="translate(134.390625 0)"/>
     <use xlink:href="#DejaVuSans-55" transform="translate(197.875 0)"/>
     <use xlink:href="#DejaVuSans-4c" transform="translate(238.984375 0)"/>
     <use xlink:href="#DejaVuSans-47" transform="translate(266.765625 0)"/>
     <use xlink:href="#DejaVuSans-56" transform="translate(330.25 0)"/>
    </g>
   </g>
   <g id="text_17">
    <!-- Important distinction: DANN/CDAN/C-DANN/CORAL/MK-MMD define how h is trained. The final classifier can be the neural MLP head or the post-hoc MLPLR probe. -->
    <g style="fill: #333333" transform="translate(42.075 375.6399) scale(0.1 -0.1)">
     <defs>
      <path id="DejaVuSans-50" d="M 3328 2828 
Q 3544 3216 3844 3400 
Q 4144 3584 4550 3584 
Q 5097 3584 5394 3201 
Q 5691 2819 5691 2113 
L 5691 0 
L 5113 0 
L 5113 2094 
Q 5113 2597 4934 2840 
Q 4756 3084 4391 3084 
Q 3944 3084 3684 2787 
Q 3425 2491 3425 1978 
L 3425 0 
L 2847 0 
L 2847 2094 
Q 2847 2600 2669 2842 
Q 2491 3084 2119 3084 
Q 1678 3084 1418 2786 
Q 1159 2488 1159 1978 
L 1159 0 
L 581 0 
L 581 3500 
L 1159 3500 
L 1159 2956 
Q 1356 3278 1631 3431 
Q 1906 3584 2284 3584 
Q 2666 3584 2933 3390 
Q 3200 3197 3328 2828 
z
" transform="scale(0.015625)"/>
      <path id="DejaVuSans-1d" d="M 750 794 
L 1409 794 
L 1409 0 
L 750 0 
L 750 794 
z
M 750 3309 
L 1409 3309 
L 1409 2516 
L 750 2516 
L 750 3309 
z
" transform="scale(0.015625)"/>
      <path id="DejaVuSans-12" d="M 1625 4666 
L 2156 4666 
L 531 -594 
L 0 -594 
L 1625 4666 
z
" transform="scale(0.015625)"/>
      <path id="DejaVuSans-11" d="M 684 794 
L 1344 794 
L 1344 0 
L 684 0 
L 684 794 
z
" transform="scale(0.015625)"/>
      <path id="DejaVuSans-37" d="M -19 4666 
L 3928 4666 
L 3928 4134 
L 2272 4134 
L 2272 0 
L 1638 0 
L 1638 4134 
L -19 4134 
L -19 4666 
z
" transform="scale(0.015625)"/>
     </defs>
     <use xlink:href="#DejaVuSans-2c"/>
     <use xlink:href="#DejaVuSans-50" transform="translate(29.5 0)"/>
     <use xlink:href="#DejaVuSans-53" transform="translate(126.90625 0)"/>
     <use xlink:href="#DejaVuSans-52" transform="translate(190.390625 0)"/>
     <use xlink:href="#DejaVuSans-55" transform="translate(251.578125 0)"/>
     <use xlink:href="#DejaVuSans-57" transform="translate(292.6875 0)"/>
     <use xlink:href="#DejaVuSans-44" transform="translate(331.890625 0)"/>
     <use xlink:href="#DejaVuSans-51" transform="translate(393.171875 0)"/>
     <use xlink:href="#DejaVuSans-57" transform="translate(456.546875 0)"/>
     <use xlink:href="#DejaVuSans-3" transform="translate(495.75 0)"/>
     <use xlink:href="#DejaVuSans-47" transform="translate(527.53125 0)"/>
     <use xlink:href="#DejaVuSans-4c" transform="translate(591.015625 0)"/>
     <use xlink:href="#DejaVuSans-56" transform="translate(618.796875 0)"/>
     <use xlink:href="#DejaVuSans-57" transform="translate(670.890625 0)"/>
     <use xlink:href="#DejaVuSans-4c" transform="translate(710.09375 0)"/>
     <use xlink:href="#DejaVuSans-51" transform="translate(737.875 0)"/>
     <use xlink:href="#DejaVuSans-46" transform="translate(801.25 0)"/>
     <use xlink:href="#DejaVuSans-57" transform="translate(856.234375 0)"/>
     <use xlink:href="#DejaVuSans-4c" transform="translate(895.4375 0)"/>
     <use xlink:href="#DejaVuSans-52" transform="translate(923.21875 0)"/>
     <use xlink:href="#DejaVuSans-51" transform="translate(984.40625 0)"/>
     <use xlink:href="#DejaVuSans-1d" transform="translate(1047.78125 0)"/>
     <use xlink:href="#DejaVuSans-3" transform="translate(1081.46875 0)"/>
     <use xlink:href="#DejaVuSans-27" transform="translate(1113.25 0)"/>
     <use xlink:href="#DejaVuSans-24" transform="translate(1188.5 0)"/>
     <use xlink:href="#DejaVuSans-31" transform="translate(1256.90625 0)"/>
     <use xlink:href="#DejaVuSans-31" transform="translate(1331.71875 0)"/>
     <use xlink:href="#DejaVuSans-12" transform="translate(1406.53125 0)"/>
     <use xlink:href="#DejaVuSans-26" transform="translate(1440.21875 0)"/>
     <use xlink:href="#DejaVuSans-27" transform="translate(1510.046875 0)"/>
     <use xlink:href="#DejaVuSans-24" transform="translate(1585.296875 0)"/>
     <use xlink:href="#DejaVuSans-31" transform="translate(1653.703125 0)"/>
     <use xlink:href="#DejaVuSans-12" transform="translate(1728.515625 0)"/>
     <use xlink:href="#DejaVuSans-26" transform="translate(1762.203125 0)"/>
     <use xlink:href="#DejaVuSans-10" transform="translate(1832.03125 0)"/>
     <use xlink:href="#DejaVuSans-27" transform="translate(1868.109375 0)"/>
     <use xlink:href="#DejaVuSans-24" transform="translate(1943.359375 0)"/>
     <use xlink:href="#DejaVuSans-31" transform="translate(2011.765625 0)"/>
     <use xlink:href="#DejaVuSans-31" transform="translate(2086.578125 0)"/>
     <use xlink:href="#DejaVuSans-12" transform="translate(2161.390625 0)"/>
     <use xlink:href="#DejaVuSans-26" transform="translate(2195.078125 0)"/>
     <use xlink:href="#DejaVuSans-32" transform="translate(2264.90625 0)"/>
     <use xlink:href="#DejaVuSans-35" transform="translate(2343.625 0)"/>
     <use xlink:href="#DejaVuSans-24" transform="translate(2409.0625 0)"/>
     <use xlink:href="#DejaVuSans-2f" transform="translate(2477.46875 0)"/>
     <use xlink:href="#DejaVuSans-12" transform="translate(2533.1875 0)"/>
     <use xlink:href="#DejaVuSans-30" transform="translate(2566.875 0)"/>
     <use xlink:href="#DejaVuSans-2e" transform="translate(2653.15625 0)"/>
     <use xlink:href="#DejaVuSans-10" transform="translate(2708.234375 0)"/>
     <use xlink:href="#DejaVuSans-30" transform="translate(2744.3125 0)"/>
     <use xlink:href="#DejaVuSans-30" transform="translate(2830.59375 0)"/>
     <use xlink:href="#DejaVuSans-27" transform="translate(2916.875 0)"/>
     <use xlink:href="#DejaVuSans-3" transform="translate(2993.875 0)"/>
     <use xlink:href="#DejaVuSans-47" transform="translate(3025.65625 0)"/>
     <use xlink:href="#DejaVuSans-48" transform="translate(3089.140625 0)"/>
     <use xlink:href="#DejaVuSans-13af" transform="translate(3150.671875 0)"/>
     <use xlink:href="#DejaVuSans-51" transform="translate(3213.65625 0)"/>
     <use xlink:href="#DejaVuSans-48" transform="translate(3277.03125 0)"/>
     <use xlink:href="#DejaVuSans-3" transform="translate(3338.5625 0)"/>
     <use xlink:href="#DejaVuSans-4b" transform="translate(3370.34375 0)"/>
     <use xlink:href="#DejaVuSans-52" transform="translate(3433.71875 0)"/>
     <use xlink:href="#DejaVuSans-5a" transform="translate(3494.90625 0)"/>
     <use xlink:href="#DejaVuSans-3" transform="translate(3576.6875 0)"/>
     <use xlink:href="#DejaVuSans-4b" transform="translate(3608.46875 0)"/>
     <use xlink:href="#DejaVuSans-3" transform="translate(3671.84375 0)"/>
     <use xlink:href="#DejaVuSans-4c" transform="translate(3703.625 0)"/>
     <use xlink:href="#DejaVuSans-56" transform="translate(3731.40625 0)"/>
     <use xlink:href="#DejaVuSans-3" transform="translate(3783.5 0)"/>
     <use xlink:href="#DejaVuSans-57" transform="translate(3815.28125 0)"/>
     <use xlink:href="#DejaVuSans-55" transform="translate(3854.484375 0)"/>
     <use xlink:href="#DejaVuSans-44" transform="translate(3895.59375 0)"/>
     <use xlink:href="#DejaVuSans-4c" transform="translate(3956.875 0)"/>
     <use xlink:href="#DejaVuSans-51" transform="translate(3984.65625 0)"/>
     <use xlink:href="#DejaVuSans-48" transform="translate(4048.03125 0)"/>
     <use xlink:href="#DejaVuSans-47" transform="translate(4109.5625 0)"/>
     <use xlink:href="#DejaVuSans-11" transform="translate(4173.046875 0)"/>
     <use xlink:href="#DejaVuSans-3" transform="translate(4204.828125 0)"/>
     <use xlink:href="#DejaVuSans-37" transform="translate(4236.609375 0)"/>
     <use xlink:href="#DejaVuSans-4b" transform="translate(4297.6875 0)"/>
     <use xlink:href="#DejaVuSans-48" transform="translate(4361.0625 0)"/>
     <use xlink:href="#DejaVuSans-3" transform="translate(4422.59375 0)"/>
     <use xlink:href="#DejaVuSans-13af" transform="translate(4454.375 0)"/>
     <use xlink:href="#DejaVuSans-51" transform="translate(4517.359375 0)"/>
     <use xlink:href="#DejaVuSans-44" transform="translate(4580.734375 0)"/>
     <use xlink:href="#DejaVuSans-4f" transform="translate(4642.015625 0)"/>
     <use xlink:href="#DejaVuSans-3" transform="translate(4669.796875 0)"/>
     <use xlink:href="#DejaVuSans-46" transform="translate(4701.578125 0)"/>
     <use xlink:href="#DejaVuSans-4f" transform="translate(4756.5625 0)"/>
     <use xlink:href="#DejaVuSans-44" transform="translate(4784.34375 0)"/>
     <use xlink:href="#DejaVuSans-56" transform="translate(4845.625 0)"/>
     <use xlink:href="#DejaVuSans-56" transform="translate(4897.71875 0)"/>
     <use xlink:href="#DejaVuSans-4c" transform="translate(4949.8125 0)"/>
     <use xlink:href="#DejaVuSans-13af" transform="translate(4977.59375 0)"/>
     <use xlink:href="#DejaVuSans-48" transform="translate(5040.578125 0)"/>
     <use xlink:href="#DejaVuSans-55" transform="translate(5102.109375 0)"/>
     <use xlink:href="#DejaVuSans-3" transform="translate(5143.21875 0)"/>
     <use xlink:href="#DejaVuSans-46" transform="translate(5175 0)"/>
     <use xlink:href="#DejaVuSans-44" transform="translate(5229.984375 0)"/>
     <use xlink:href="#DejaVuSans-51" transform="translate(5291.265625 0)"/>
     <use xlink:href="#DejaVuSans-3" transform="translate(5354.640625 0)"/>
     <use xlink:href="#DejaVuSans-45" transform="translate(5386.421875 0)"/>
     <use xlink:href="#DejaVuSans-48" transform="translate(5449.90625 0)"/>
     <use xlink:href="#DejaVuSans-3" transform="translate(5511.4375 0)"/>
     <use xlink:href="#DejaVuSans-57" transform="translate(5543.21875 0)"/>
     <use xlink:href="#DejaVuSans-4b" transform="translate(5582.421875 0)"/>
     <use xlink:href="#DejaVuSans-48" transform="translate(5645.796875 0)"/>
     <use xlink:href="#DejaVuSans-3" transform="translate(5707.328125 0)"/>
     <use xlink:href="#DejaVuSans-51" transform="translate(5739.109375 0)"/>
     <use xlink:href="#DejaVuSans-48" transform="translate(5802.484375 0)"/>
     <use xlink:href="#DejaVuSans-58" transform="translate(5864.015625 0)"/>
     <use xlink:href="#DejaVuSans-55" transform="translate(5927.390625 0)"/>
     <use xlink:href="#DejaVuSans-44" transform="translate(5968.5 0)"/>
     <use xlink:href="#DejaVuSans-4f" transform="translate(6029.78125 0)"/>
     <use xlink:href="#DejaVuSans-3" transform="translate(6057.5625 0)"/>
     <use xlink:href="#DejaVuSans-30" transform="translate(6089.34375 0)"/>
     <use xlink:href="#DejaVuSans-2f" transform="translate(6175.625 0)"/>
     <use xlink:href="#DejaVuSans-33" transform="translate(6231.34375 0)"/>
     <use xlink:href="#DejaVuSans-3" transform="translate(6291.640625 0)"/>
     <use xlink:href="#DejaVuSans-4b" transform="translate(6323.421875 0)"/>
     <use xlink:href="#DejaVuSans-48" transform="translate(6386.796875 0)"/>
     <use xlink:href="#DejaVuSans-44" transform="translate(6448.328125 0)"/>
     <use xlink:href="#DejaVuSans-47" transform="translate(6509.609375 0)"/>
     <use xlink:href="#DejaVuSans-3" transform="translate(6573.09375 0)"/>
     <use xlink:href="#DejaVuSans-52" transform="translate(6604.875 0)"/>
     <use xlink:href="#DejaVuSans-55" transform="translate(6666.0625 0)"/>
     <use xlink:href="#DejaVuSans-3" transform="translate(6707.171875 0)"/>
     <use xlink:href="#DejaVuSans-57" transform="translate(6738.953125 0)"/>
     <use xlink:href="#DejaVuSans-4b" transform="translate(6778.15625 0)"/>
     <use xlink:href="#DejaVuSans-48" transform="translate(6841.53125 0)"/>
     <use xlink:href="#DejaVuSans-3" transform="translate(6903.0625 0)"/>
     <use xlink:href="#DejaVuSans-53" transform="translate(6934.84375 0)"/>
     <use xlink:href="#DejaVuSans-52" transform="translate(6998.328125 0)"/>
     <use xlink:href="#DejaVuSans-56" transform="translate(7059.515625 0)"/>
     <use xlink:href="#DejaVuSans-57" transform="translate(7111.609375 0)"/>
     <use xlink:href="#DejaVuSans-10" transform="translate(7150.8125 0)"/>
     <use xlink:href="#DejaVuSans-4b" transform="translate(7186.890625 0)"/>
     <use xlink:href="#DejaVuSans-52" transform="translate(7250.265625 0)"/>
     <use xlink:href="#DejaVuSans-46" transform="translate(7311.453125 0)"/>
     <use xlink:href="#DejaVuSans-3" transform="translate(7366.4375 0)"/>
     <use xlink:href="#DejaVuSans-30" transform="translate(7398.21875 0)"/>
     <use xlink:href="#DejaVuSans-2f" transform="translate(7484.5 0)"/>
     <use xlink:href="#DejaVuSans-33" transform="translate(7540.21875 0)"/>
     <use xlink:href="#DejaVuSans-2f" transform="translate(7600.515625 0)"/>
     <use xlink:href="#DejaVuSans-35" transform="translate(7656.234375 0)"/>
     <use xlink:href="#DejaVuSans-3" transform="translate(7725.71875 0)"/>
     <use xlink:href="#DejaVuSans-53" transform="translate(7757.5 0)"/>
     <use xlink:href="#DejaVuSans-55" transform="translate(7820.984375 0)"/>
     <use xlink:href="#DejaVuSans-52" transform="translate(7859.890625 0)"/>
     <use xlink:href="#DejaVuSans-45" transform="translate(7921.078125 0)"/>
     <use xlink:href="#DejaVuSans-48" transform="translate(7984.5625 0)"/>
     <use xlink:href="#DejaVuSans-11" transform="translate(8046.09375 0)"/>
    </g>
   </g>
   <g id="text_18">
    <!-- Model taxonomy used in the thesis figures -->
    <g transform="translate(163.58125 19.3575) scale(0.16 -0.16)">
     <defs>
      <path id="DejaVuSans-Bold-30" d="M 588 4666 
L 2119 4666 
L 3181 2169 
L 4250 4666 
L 5778 4666 
L 5778 0 
L 4641 0 
L 4641 3413 
L 3566 897 
L 2803 897 
L 1728 3413 
L 1728 0 
L 588 0 
L 588 4666 
z
" transform="scale(0.015625)"/>
      <path id="DejaVuSans-Bold-52" d="M 2203 2784 
Q 1831 2784 1636 2517 
Q 1441 2250 1441 1747 
Q 1441 1244 1636 976 
Q 1831 709 2203 709 
Q 2569 709 2762 976 
Q 2956 1244 2956 1747 
Q 2956 2250 2762 2517 
Q 2569 2784 2203 2784 
z
M 2203 3584 
Q 3106 3584 3614 3096 
Q 4122 2609 4122 1747 
Q 4122 884 3614 396 
Q 3106 -91 2203 -91 
Q 1297 -91 786 396 
Q 275 884 275 1747 
Q 275 2609 786 3096 
Q 1297 3584 2203 3584 
z
" transform="scale(0.015625)"/>
      <path id="DejaVuSans-Bold-47" d="M 2919 2988 
L 2919 4863 
L 4044 4863 
L 4044 0 
L 2919 0 
L 2919 506 
Q 2688 197 2409 53 
Q 2131 -91 1766 -91 
Q 1119 -91 703 423 
Q 288 938 288 1747 
Q 288 2556 703 3070 
Q 1119 3584 1766 3584 
Q 2128 3584 2408 3439 
Q 2688 3294 2919 2988 
z
M 2181 722 
Q 2541 722 2730 984 
Q 2919 1247 2919 1747 
Q 2919 2247 2730 2509 
Q 2541 2772 2181 2772 
Q 1825 2772 1636 2509 
Q 1447 2247 1447 1747 
Q 1447 1247 1636 984 
Q 1825 722 2181 722 
z
" transform="scale(0.015625)"/>
      <path id="DejaVuSans-Bold-48" d="M 4031 1759 
L 4031 1441 
L 1416 1441 
Q 1456 1047 1700 850 
Q 1944 653 2381 653 
Q 2734 653 3104 758 
Q 3475 863 3866 1075 
L 3866 213 
Q 3469 63 3072 -14 
Q 2675 -91 2278 -91 
Q 1328 -91 801 392 
Q 275 875 275 1747 
Q 275 2603 792 3093 
Q 1309 3584 2216 3584 
Q 3041 3584 3536 3087 
Q 4031 2591 4031 1759 
z
M 2881 2131 
Q 2881 2450 2695 2645 
Q 2509 2841 2209 2841 
Q 1884 2841 1681 2658 
Q 1478 2475 1428 2131 
L 2881 2131 
z
" transform="scale(0.015625)"/>
      <path id="DejaVuSans-Bold-4f" d="M 538 4863 
L 1656 4863 
L 1656 0 
L 538 0 
L 538 4863 
z
" transform="scale(0.015625)"/>
      <path id="DejaVuSans-Bold-3" transform="scale(0.015625)"/>
      <path id="DejaVuSans-Bold-57" d="M 1759 4494 
L 1759 3500 
L 2913 3500 
L 2913 2700 
L 1759 2700 
L 1759 1216 
Q 1759 972 1856 886 
Q 1953 800 2241 800 
L 2816 800 
L 2816 0 
L 1856 0 
Q 1194 0 917 276 
Q 641 553 641 1216 
L 641 2700 
L 84 2700 
L 84 3500 
L 641 3500 
L 641 4494 
L 1759 4494 
z
" transform="scale(0.015625)"/>
      <path id="DejaVuSans-Bold-44" d="M 2106 1575 
Q 1756 1575 1579 1456 
Q 1403 1338 1403 1106 
Q 1403 894 1545 773 
Q 1688 653 1941 653 
Q 2256 653 2472 879 
Q 2688 1106 2688 1447 
L 2688 1575 
L 2106 1575 
z
M 3816 1997 
L 3816 0 
L 2688 0 
L 2688 519 
Q 2463 200 2181 54 
Q 1900 -91 1497 -91 
Q 953 -91 614 226 
Q 275 544 275 1050 
Q 275 1666 698 1953 
Q 1122 2241 2028 2241 
L 2688 2241 
L 2688 2328 
Q 2688 2594 2478 2717 
Q 2269 2841 1825 2841 
Q 1466 2841 1156 2769 
Q 847 2697 581 2553 
L 581 3406 
Q 941 3494 1303 3539 
Q 1666 3584 2028 3584 
Q 2975 3584 3395 3211 
Q 3816 2838 3816 1997 
z
" transform="scale(0.015625)"/>
      <path id="DejaVuSans-Bold-5b" d="M 1422 1791 
L 159 3500 
L 1344 3500 
L 2059 2463 
L 2784 3500 
L 3969 3500 
L 2706 1797 
L 4031 0 
L 2847 0 
L 2059 1106 
L 1281 0 
L 97 0 
L 1422 1791 
z
" transform="scale(0.015625)"/>
      <path id="DejaVuSans-Bold-51" d="M 4056 2131 
L 4056 0 
L 2931 0 
L 2931 347 
L 2931 1631 
Q 2931 2084 2911 2256 
Q 2891 2428 2841 2509 
Q 2775 2619 2662 2680 
Q 2550 2741 2406 2741 
Q 2056 2741 1856 2470 
Q 1656 2200 1656 1722 
L 1656 0 
L 538 0 
L 538 3500 
L 1656 3500 
L 1656 2988 
Q 1909 3294 2193 3439 
Q 2478 3584 2822 3584 
Q 3428 3584 3742 3212 
Q 4056 2841 4056 2131 
z
" transform="scale(0.015625)"/>
      <path id="DejaVuSans-Bold-50" d="M 3781 2919 
Q 3994 3244 4286 3414 
Q 4578 3584 4928 3584 
Q 5531 3584 5847 3212 
Q 6163 2841 6163 2131 
L 6163 0 
L 5038 0 
L 5038 1825 
Q 5041 1866 5042 1909 
Q 5044 1953 5044 2034 
Q 5044 2406 4934 2573 
Q 4825 2741 4581 2741 
Q 4263 2741 4089 2478 
Q 3916 2216 3909 1719 
L 3909 0 
L 2784 0 
L 2784 1825 
Q 2784 2406 2684 2573 
Q 2584 2741 2328 2741 
Q 2006 2741 1831 2477 
Q 1656 2213 1656 1722 
L 1656 0 
L 531 0 
L 531 3500 
L 1656 3500 
L 1656 2988 
Q 1863 3284 2130 3434 
Q 2397 3584 2719 3584 
Q 3081 3584 3359 3409 
Q 3638 3234 3781 2919 
z
" transform="scale(0.015625)"/>
      <path id="DejaVuSans-Bold-5c" d="M 78 3500 
L 1197 3500 
L 2138 1125 
L 2938 3500 
L 4056 3500 
L 2584 -331 
Q 2363 -916 2067 -1148 
Q 1772 -1381 1288 -1381 
L 641 -1381 
L 641 -647 
L 991 -647 
Q 1275 -647 1404 -556 
Q 1534 -466 1606 -231 
L 1638 -134 
L 78 3500 
z
" transform="scale(0.015625)"/>
      <path id="DejaVuSans-Bold-58" d="M 500 1363 
L 500 3500 
L 1625 3500 
L 1625 3150 
Q 1625 2866 1622 2436 
Q 1619 2006 1619 1863 
Q 1619 1441 1641 1255 
Q 1663 1069 1716 984 
Q 1784 875 1895 815 
Q 2006 756 2150 756 
Q 2500 756 2700 1025 
Q 2900 1294 2900 1772 
L 2900 3500 
L 4019 3500 
L 4019 0 
L 2900 0 
L 2900 506 
Q 2647 200 2364 54 
Q 2081 -91 1741 -91 
Q 1134 -91 817 281 
Q 500 653 500 1363 
z
" transform="scale(0.015625)"/>
      <path id="DejaVuSans-Bold-56" d="M 3272 3391 
L 3272 2541 
Q 2913 2691 2578 2766 
Q 2244 2841 1947 2841 
Q 1628 2841 1473 2761 
Q 1319 2681 1319 2516 
Q 1319 2381 1436 2309 
Q 1553 2238 1856 2203 
L 2053 2175 
Q 2913 2066 3209 1816 
Q 3506 1566 3506 1031 
Q 3506 472 3093 190 
Q 2681 -91 1863 -91 
Q 1516 -91 1145 -36 
Q 775 19 384 128 
L 384 978 
Q 719 816 1070 734 
Q 1422 653 1784 653 
Q 2113 653 2278 743 
Q 2444 834 2444 1013 
Q 2444 1163 2330 1236 
Q 2216 1309 1875 1350 
L 1678 1375 
Q 931 1469 631 1722 
Q 331 1975 331 2491 
Q 331 3047 712 3315 
Q 1094 3584 1881 3584 
Q 2191 3584 2531 3537 
Q 2872 3491 3272 3391 
z
" transform="scale(0.015625)"/>
      <path id="DejaVuSans-Bold-4c" d="M 538 3500 
L 1656 3500 
L 1656 0 
L 538 0 
L 538 3500 
z
M 538 4863 
L 1656 4863 
L 1656 3950 
L 538 3950 
L 538 4863 
z
" transform="scale(0.015625)"/>
      <path id="DejaVuSans-Bold-4b" d="M 4056 2131 
L 4056 0 
L 2931 0 
L 2931 347 
L 2931 1625 
Q 2931 2084 2911 2256 
Q 2891 2428 2841 2509 
Q 2775 2619 2662 2680 
Q 2550 2741 2406 2741 
Q 2056 2741 1856 2470 
Q 1656 2200 1656 1722 
L 1656 0 
L 538 0 
L 538 4863 
L 1656 4863 
L 1656 2988 
Q 1909 3294 2193 3439 
Q 2478 3584 2822 3584 
Q 3428 3584 3742 3212 
Q 4056 2841 4056 2131 
z
" transform="scale(0.015625)"/>
      <path id="DejaVuSans-Bold-13ab" d="M 3078 4863 
L 4206 4863 
L 4206 3950 
L 3078 3950 
L 3078 4863 
z
M 2847 4863 
L 2847 4128 
L 2228 4128 
Q 1994 4128 1903 4042 
Q 1813 3956 1813 3744 
L 1813 3500 
L 4206 3500 
L 4206 0 
L 3078 0 
L 3078 2700 
L 1813 2700 
L 1813 0 
L 684 0 
L 684 2700 
L 134 2700 
L 134 3500 
L 684 3500 
L 684 3744 
Q 684 4316 1003 4589 
Q 1322 4863 1991 4863 
L 2847 4863 
z
" transform="scale(0.015625)"/>
      <path id="DejaVuSans-Bold-4a" d="M 2919 594 
Q 2688 288 2409 144 
Q 2131 0 1766 0 
Q 1125 0 706 504 
Q 288 1009 288 1791 
Q 288 2575 706 3076 
Q 1125 3578 1766 3578 
Q 2131 3578 2409 3434 
Q 2688 3291 2919 2981 
L 2919 3500 
L 4044 3500 
L 4044 353 
Q 4044 -491 3511 -936 
Q 2978 -1381 1966 -1381 
Q 1638 -1381 1331 -1331 
Q 1025 -1281 716 -1178 
L 716 -306 
Q 1009 -475 1290 -558 
Q 1572 -641 1856 -641 
Q 2406 -641 2662 -400 
Q 2919 -159 2919 353 
L 2919 594 
z
M 2181 2772 
Q 1834 2772 1640 2515 
Q 1447 2259 1447 1791 
Q 1447 1309 1634 1061 
Q 1822 813 2181 813 
Q 2531 813 2725 1069 
Q 2919 1325 2919 1791 
Q 2919 2259 2725 2515 
Q 2531 2772 2181 2772 
z
" transform="scale(0.015625)"/>
      <path id="DejaVuSans-Bold-55" d="M 3138 2547 
Q 2991 2616 2845 2648 
Q 2700 2681 2553 2681 
Q 2122 2681 1889 2404 
Q 1656 2128 1656 1613 
L 1656 0 
L 538 0 
L 538 3500 
L 1656 3500 
L 1656 2925 
Q 1872 3269 2151 3426 
Q 2431 3584 2822 3584 
Q 2878 3584 2943 3579 
Q 3009 3575 3134 3559 
L 3138 2547 
z
" transform="scale(0.015625)"/>
     </defs>
     <use xlink:href="#DejaVuSans-Bold-30"/>
     <use xlink:href="#DejaVuSans-Bold-52" transform="translate(99.515625 0)"/>
     <use xlink:href="#DejaVuSans-Bold-47" transform="translate(168.21875 0)"/>
     <use xlink:href="#DejaVuSans-Bold-48" transform="translate(239.796875 0)"/>
     <use xlink:href="#DejaVuSans-Bold-4f" transform="translate(307.625 0)"/>
     <use xlink:href="#DejaVuSans-Bold-3" transform="translate(341.90625 0)"/>
     <use xlink:href="#DejaVuSans-Bold-57" transform="translate(376.71875 0)"/>
     <use xlink:href="#DejaVuSans-Bold-44" transform="translate(424.515625 0)"/>
     <use xlink:href="#DejaVuSans-Bold-5b" transform="translate(492 0)"/>
     <use xlink:href="#DejaVuSans-Bold-52" transform="translate(556.5 0)"/>
     <use xlink:href="#DejaVuSans-Bold-51" transform="translate(625.203125 0)"/>
     <use xlink:href="#DejaVuSans-Bold-52" transform="translate(696.390625 0)"/>
     <use xlink:href="#DejaVuSans-Bold-50" transform="translate(765.09375 0)"/>
     <use xlink:href="#DejaVuSans-Bold-5c" transform="translate(869.296875 0)"/>
     <use xlink:href="#DejaVuSans-Bold-3" transform="translate(934.484375 0)"/>
     <use xlink:href="#DejaVuSans-Bold-58" transform="translate(969.296875 0)"/>
     <use xlink:href="#DejaVuSans-Bold-56" transform="translate(1040.484375 0)"/>
     <use xlink:href="#DejaVuSans-Bold-48" transform="translate(1100 0)"/>
     <use xlink:href="#DejaVuSans-Bold-47" transform="translate(1167.828125 0)"/>
     <use xlink:href="#DejaVuSans-Bold-3" transform="translate(1239.40625 0)"/>
     <use xlink:href="#DejaVuSans-Bold-4c" transform="translate(1274.21875 0)"/>
     <use xlink:href="#DejaVuSans-Bold-51" transform="translate(1308.5 0)"/>
     <use xlink:href="#DejaVuSans-Bold-3" transform="translate(1379.6875 0)"/>
     <use xlink:href="#DejaVuSans-Bold-57" transform="translate(1414.5 0)"/>
     <use xlink:href="#DejaVuSans-Bold-4b" transform="translate(1462.296875 0)"/>
     <use xlink:href="#DejaVuSans-Bold-48" transform="translate(1533.484375 0)"/>
     <use xlink:href="#DejaVuSans-Bold-3" transform="translate(1601.3125 0)"/>
     <use xlink:href="#DejaVuSans-Bold-57" transform="translate(1636.125 0)"/>
     <use xlink:href="#DejaVuSans-Bold-4b" transform="translate(1683.921875 0)"/>
     <use xlink:href="#DejaVuSans-Bold-48" transform="translate(1755.109375 0)"/>
     <use xlink:href="#DejaVuSans-Bold-56" transform="translate(1822.9375 0)"/>
     <use xlink:href="#DejaVuSans-Bold-4c" transform="translate(1882.453125 0)"/>
     <use xlink:href="#DejaVuSans-Bold-56" transform="translate(1916.734375 0)"/>
     <use xlink:href="#DejaVuSans-Bold-3" transform="translate(1976.25 0)"/>
     <use xlink:href="#DejaVuSans-Bold-13ab" transform="translate(2011.0625 0)"/>
     <use xlink:href="#DejaVuSans-Bold-4a" transform="translate(2085.1875 0)"/>
     <use xlink:href="#DejaVuSans-Bold-58" transform="translate(2156.765625 0)"/>
     <use xlink:href="#DejaVuSans-Bold-55" transform="translate(2227.953125 0)"/>
     <use xlink:href="#DejaVuSans-Bold-48" transform="translate(2277.265625 0)"/>
     <use xlink:href="#DejaVuSans-Bold-56" transform="translate(2345.09375 0)"/>
    </g>
   </g>
  </g>
 </g>
 <defs>
  <clipPath id="p1c2003dece">
   <rect x="7.2" y="31.3575" width="697.5" height="399.168"/>
  </clipPath>
 </defs>
</svg>
